<svg height="761" width="1126" xmlns="http://www.w3.org/2000/svg" xmlns:xlink="http://www.w3.org/1999/xlink"><linearGradient id="c" x1="49.902%" x2="86.263%" y1="22.979%" y2="53.952%"><stop offset="0" stop-color="#f8cd4b" stop-opacity=".42"/><stop offset="1" stop-color="#f8cd4b" stop-opacity="0"/></linearGradient><linearGradient id="d" x1="49.988%" x2="49.988%" y1=".063%" y2="99.895%"><stop offset="0" stop-color="#f8cd4b"/><stop offset="1" stop-color="#f8cd4b" stop-opacity="0"/></linearGradient><linearGradient id="a"><stop offset="0"/><stop offset="1" stop-opacity="0"/></linearGradient><linearGradient id="e" x1="-53.183%" x2="49.988%" xlink:href="#a" y1="90.356%" y2="72.231%"/><linearGradient id="f" x1="50%" x2="64.39%" xlink:href="#a" y1="29.112%" y2="61.114%"/><mask id="b" fill="#fff"><path d="M0 0h1126v761H0z" fill-rule="evenodd"/></mask><g fill="none" fill-rule="evenodd" mask="url(#b)"><path d="M186.176 610L-1 758v74h1110V16L974.059 268l-154.53 96-201.323 72-120.794 84-149.088 60z" fill="#fff" fill-rule="nonzero"/><path d="M196.176 610L9 758v74h1110V16L984.059 268l-154.53 96-201.323 72-120.794 84-149.088 60z" fill="url(#c)" fill-rule="nonzero" transform="translate(-10)"/><path d="M1119.88 16.472L984.899 268.708l-154.75 96.198-202.256 71.99L506.1 522.887l-148.109 58.079-162.984 29.973L1.617 762.786l-1.235-1.573L194.16 609.061l163.281-30.027 147.704-57.921 121.818-86.009 202.312-72.01 154.114-95.802L1118.12 15.528z" fill="url(#d)" transform="translate(-10)"/><path d="M1119.88 16.472L984.899 268.708l-154.75 96.198-202.256 71.99L506.1 522.887l-148.109 58.079-162.984 29.973L1.617 762.786l-1.235-1.573L194.16 609.061l163.281-30.027 147.704-57.921 121.818-86.009 202.312-72.01 154.114-95.802L1118.12 15.528z" fill="url(#e)" transform="translate(-10)"/><path d="M506.6 260.578l6.809-35.494 5.796-31.258v-.044c.05.12.094.245.145.359-.711 3.671-12.247 63.495-12.498 66.531zm10.838-74.157v-.044a.625.625 0 000 .106zm-21.424-11.606a7.078 7.078 0 00-.051-.943c1.151 1.924 2.647 6.287 2.892 7.092l-.044.094z" fill-rule="nonzero" fill="#f8f8f8"/><g fill="#000"><path d="M449.448 370.538c-.54 5.142-11.9 226.879-11.9 226.879h11.9l57.869-208.78z" fill-rule="nonzero"/><path d="M443.004 348.226c-1.502 30.296 11.404 55.109 33.816 55.109 30.767 0 71.498-19.614 82.708-30.685 2.797 8.273 42.478 112.481 42.478 112.481h16.434s-10.53-121.333-30.271-152.451c-6.494-8.651-50.242-8.33-77.017-1.842-21.255 13.447-60.811 19.45-68.148 17.388z" fill-rule="nonzero"/><path d="M518.795 168.806a2.599 2.599 0 011.561.365 1.25 1.25 0 001.294-2.139 5.081 5.081 0 00-3.058-.717c-1.062.078-2.03.778-2.789 1.53-.809.801-1.592 1.872-2.274 3.07-1.357 2.381-2.433 5.472-2.433 8.326 0 2.596.355 4.427.656 5.983l.038.195c.305 1.581.523 2.837.327 4.502-.168 1.43-1.735 10.104-3.585 20.347-.504 2.788-1.028 5.692-1.551 8.597a2505.533 2505.533 0 00-3.324 18.773c-.45 2.627-.825 4.884-1.088 6.585a81.996 81.996 0 00-.309 2.135 41.263 41.263 0 01-4.286-.335 1.251 1.251 0 00-.325 2.479c1.906.25 3.826.373 5.747.37a1.25 1.25 0 001.248-1.251c0-.265.126-1.276.395-3.016.26-1.681.633-3.922 1.082-6.544.899-5.243 2.102-11.986 3.32-18.753.513-2.849 1.03-5.708 1.527-8.463 1.858-10.283 3.454-19.117 3.632-20.632.244-2.076-.045-3.658-.355-5.268l-.035-.177c-.298-1.539-.614-3.173-.614-5.527 0-2.295.892-4.959 2.105-7.088.602-1.057 1.255-1.931 1.861-2.531.653-.647 1.077-.805 1.215-.814zm-47.755 54.617a1.25 1.25 0 00-1.381-1.103c-10.207 1.146-17.435 8.113-22.443 17.924a1.25 1.25 0 102.227 1.137c4.799-9.401 11.439-15.56 20.495-16.577a1.249 1.249 0 001.102-1.381z"/><path d="M483.032 226.77a1.25 1.25 0 00.233 1.752c7.461 5.707 13.363 17.191 17.752 30.731a1.25 1.25 0 102.378-.77c-4.413-13.618-10.506-25.747-18.611-31.947a1.25 1.25 0 00-1.752.234zm-39.919 27.772a1.25 1.25 0 00-1.53.885c-4.854 18.17-5.694 40.692-4.885 58.996.405 9.162 1.224 17.302 2.172 23.353.473 3.023.982 5.548 1.494 7.428.256.937.519 1.743.791 2.38.248.581.578 1.213 1.052 1.605.586.485 1.382.739 2.177.887.826.153 1.812.219 2.909.221 2.199.002 4.992-.257 8.151-.709 6.329-.904 14.275-2.602 22.18-4.645 7.907-2.043 15.809-4.441 22.049-6.756 3.118-1.157 5.846-2.301 7.961-3.38 1.057-.539 1.981-1.072 2.732-1.593.734-.509 1.377-1.057 1.8-1.645l.001-.003-1.015-.728 1.013.732.001-.001c.412-.571.665-1.389.844-2.242.189-.898.328-2.007.424-3.285.192-2.559.215-5.899.063-9.791-.303-7.789-1.309-17.881-3.112-28.541a1.25 1.25 0 00-2.465.417c1.787 10.564 2.78 20.549 3.079 28.221.149 3.839.124 7.077-.058 9.508-.091 1.217-.22 2.207-.377 2.957-.167.794-.338 1.172-.425 1.292l-.003.004c-.178.248-.551.604-1.195 1.051-.628.435-1.446.911-2.443 1.42-1.994 1.017-4.622 2.123-7.694 3.263-6.139 2.277-13.955 4.651-21.805 6.68-7.852 2.029-15.701 3.703-21.908 4.59-3.108.445-5.768.686-7.795.684-1.015-.002-1.835-.064-2.456-.179-.653-.122-.945-.277-1.038-.354.005.004.003.002-.004-.008-.029-.04-.156-.213-.343-.653-.21-.491-.439-1.176-.679-2.056-.478-1.757-.97-4.182-1.436-7.157-.931-5.945-1.743-13.991-2.144-23.078-.804-18.194.044-40.425 4.802-58.24a1.25 1.25 0 00-.885-1.53z"/><path d="M533.551 169.49c-1.678-3.355-4.229-5.908-7.418-5.908s-5.741 2.552-7.421 5.908c-1.716 3.428-2.742 8.075-2.744 13.137a31.208 31.208 0 002.073 11.632c-.578 2.989-3.492 18.11-6.353 33.157-1.502 7.899-2.99 15.78-4.119 21.875-.564 3.048-1.039 5.652-1.381 7.589-.139.791-.259 1.486-.355 2.059l-.926-.36c-1.447-.562-3.404-1.321-5.441-2.108-4.055-1.565-8.479-3.258-9.79-3.703a1.251 1.251 0 00-.803 2.368c1.248.423 5.606 2.09 9.693 3.667a3175.02 3175.02 0 017.17 2.781l.648.253.455-1.165-.455 1.165a1.253 1.253 0 001.701-1.061c.025-.304.218-1.494.565-3.461a953.7 953.7 0 011.377-7.568c1.128-6.09 2.615-13.966 4.117-21.864 3.004-15.796 6.065-31.673 6.42-33.505a1.242 1.242 0 00-.066-.7 28.68 28.68 0 01-2.03-11.024v-.018c0-4.761.97-9.012 2.479-12.027 1.547-3.09 3.453-4.527 5.186-4.527s3.637 1.437 5.182 4.527c1.508 3.015 2.476 7.266 2.476 12.027v.021a28.21 28.21 0 01-2.227 11.474c-.078.183-.11.382-.096.58.276 3.731 1.654 23.324 1.698 43.239.021 9.961-.29 19.967-1.233 28.095-.471 4.067-1.097 7.628-1.904 10.463-.82 2.879-1.78 4.837-2.812 5.868-4.689 4.689-12.827 5.236-22.205 3.489-9.276-1.727-19.287-5.611-27.206-9.135a1.251 1.251 0 00-1.016 2.285c7.974 3.548 18.197 7.526 27.765 9.308 9.466 1.763 18.782 1.468 24.429-4.179 1.502-1.5 2.603-3.978 3.449-6.951.859-3.017 1.504-6.726 1.983-10.86.96-8.272 1.272-18.391 1.25-28.389-.044-19.523-1.361-38.721-1.683-43.119a30.69 30.69 0 002.308-12.2c-.001-5.061-1.026-9.707-2.74-13.135z"/><path d="M500.418 185.451l9.418-2.5 1.747 6.58-9.418 2.501z" fill-rule="nonzero"/><path d="M455.958 239.071a1.25 1.25 0 00-1.387-1.097c-5.5.644-10.459 2.615-12.708 6.953l-.001.003c-2.014 3.909-1.461 8.467.367 12.869 1.833 4.417 5.025 8.877 8.641 12.792 3.622 3.919 7.725 7.353 11.446 9.701 1.859 1.173 3.653 2.094 5.267 2.664 1.579.557 3.145.835 4.466.521 1.254-.298 2.482-1.081 3.634-2.087 1.167-1.019 2.343-2.345 3.491-3.855 2.296-3.023 4.56-6.896 6.491-10.839 1.931-3.944 3.551-8.005 4.543-11.42.495-1.705.844-3.281.988-4.618.138-1.281.116-2.555-.332-3.507l-1.131.533 1.133-.529c-.287-.614-.81-1.144-1.37-1.593-.582-.466-1.312-.928-2.146-1.379-1.668-.902-3.854-1.815-6.345-2.656a1.25 1.25 0 10-.8 2.369c2.407.812 4.451 1.672 5.956 2.486.753.408 1.345.789 1.772 1.131.448.359.621.6.668.7l.001.004c.138.293.237.975.108 2.172-.123 1.141-.43 2.564-.903 4.19-.943 3.246-2.504 7.171-4.388 11.018-1.884 3.848-4.067 7.57-6.236 10.425-1.085 1.429-2.146 2.613-3.144 3.485-1.013.884-1.879 1.374-2.568 1.538-.624.148-1.637.054-3.056-.447-1.384-.488-3.006-1.311-4.765-2.42-3.515-2.218-7.453-5.506-10.943-9.284-3.496-3.784-6.486-7.998-8.169-12.054-1.69-4.07-1.989-7.783-.455-10.763 1.662-3.205 5.529-5.006 10.779-5.62a1.25 1.25 0 001.096-1.386zm28.067-16.69c-.69 0-1.25.56-1.25 1.25v3.898a1.25 1.25 0 002.5 0v-3.898c0-.69-.56-1.25-1.25-1.25zm-14.227-7.286c-.69 0-1.25.56-1.25 1.25v18.722c0 .957.701 1.54 1.168 1.83.52.324 1.184.562 1.868.743 1.39.368 3.19.582 4.971.638a1.25 1.25 0 00.078-2.499c-1.664-.052-3.262-.252-4.409-.556-.572-.151-.958-.309-1.176-.441v-18.437c0-.69-.56-1.25-1.25-1.25z"/><path d="M466.088 209.169a1.25 1.25 0 00-.693 1.626 31.765 31.765 0 003.376 6.263 1.25 1.25 0 002.054-1.426 29.267 29.267 0 01-3.111-5.769 1.25 1.25 0 00-1.626-.694zm32.448-29.388a1.25 1.25 0 00-.858 1.546 44.498 44.498 0 011.719 12.456v.006c0 8.097-2.032 15.37-5.251 20.577-3.231 5.226-7.532 8.203-12.068 8.204a10.624 10.624 0 01-3.372-.562 1.25 1.25 0 00-.804 2.367c1.343.456 2.752.691 4.17.695h.004c5.723 0 10.707-3.746 14.196-9.389 3.5-5.662 5.624-13.404 5.625-21.89a47.022 47.022 0 00-1.815-13.152 1.25 1.25 0 00-1.546-.858z"/><path d="M372.359 145.091c-10.325-3.145-21.373-6.341-34.386-6.341-20.453 0-32.861 6.512-40.106 15.952-7.196 9.376-9.117 21.412-9.117 32.127 0 10.053 2.69 18.094 7.203 24.477 4.504 6.371 10.773 11.018 17.83 14.382 14.082 6.715 31.477 8.403 44.911 8.403 25.799 0 45.422-5.915 61.4-11.805 3.231-1.19 6.289-2.371 9.213-3.499 4.345-1.677 8.393-3.24 12.271-4.552 6.453-2.185 12.227-3.599 17.703-3.599 1.031 0 2.403.214 3.779.453l.514.09c.491.086.971.17 1.4.237.565.089 1.132.163 1.58.163 1.229 0 2.173-.889 2.779-1.902.634-1.062 1.086-2.541 1.281-4.371a1.25 1.25 0 00-2.486-.265c-.17 1.596-.548 2.695-.942 3.354-.378.634-.643.681-.643.684h.011c-.233 0-.627-.044-1.193-.133-.404-.063-.85-.141-1.333-.226l-.541-.094c-1.341-.233-2.924-.49-4.206-.49-5.885 0-11.966 1.517-18.505 3.731-3.91 1.323-8.057 2.923-12.455 4.62-2.919 1.126-5.948 2.295-9.091 3.454-15.838 5.838-35.149 11.65-60.536 11.65-13.302 0-30.254-1.684-43.835-8.159-6.775-3.23-12.667-7.632-16.865-13.57-4.19-5.925-6.744-13.453-6.744-23.033 0-10.489 1.895-21.868 8.6-30.605 6.657-8.674 18.236-14.974 38.123-14.974 12.606 0 23.341 3.09 33.657 6.232l1.567.479c9.718 2.968 19.191 5.862 29.391 5.862 13.688 0 23.183-2.483 31.552-4.945.766-.225 1.52-.449 2.267-.671 7.419-2.207 14.027-4.172 22.314-4.172 6.476 0 17.097 1.89 26.061 6.252 8.999 4.378 15.929 11.029 15.929 20.398 0 4.206-.741 6.564-1.414 7.835-.129-.355-.27-.734-.419-1.122-.548-1.43-1.243-3.09-1.88-4.155a1.25 1.25 0 00-2.319.732 10.66 10.66 0 01-2.037 7.067 1.25 1.25 0 002.016 1.478 13.156 13.156 0 001.984-3.97c.494 1.306.874 2.439.978 2.786a1.25 1.25 0 001.786.743c1.338-.714 3.805-3.526 3.805-11.394 0-10.823-8.039-18.123-17.335-22.646-9.329-4.54-20.328-6.504-27.155-6.504-8.669 0-15.616 2.068-23.002 4.268-.756.225-1.517.451-2.284.677-8.271 2.433-17.504 4.843-30.847 4.843-9.815 0-18.956-2.791-28.768-5.786l-1.461-.446z"/><path d="M474.107 193.24a1.25 1.25 0 00-1.765.113 21.41 21.41 0 00-1.561 2.002 1.25 1.25 0 102.058 1.419c.425-.617.886-1.208 1.381-1.77a1.25 1.25 0 00-.113-1.764z"/><path d="M471.387 197.39a3.41 3.41 0 011.938.594 1.25 1.25 0 001.408-2.066 5.921 5.921 0 00-3.352-1.028 5.988 5.988 0 00-5.377 8.634 5.984 5.984 0 002.837 2.782 1.25 1.25 0 001.059-2.265 3.486 3.486 0 01-1.928-3.92 3.492 3.492 0 013.409-2.731z"/><path d="M517.218 182.636a31.02 31.02 0 001.704 10.486c-5.35.629-9.222 1.088-9.222 1.088l-3.691-14.918s5.457-2.27 12.253-5.03a32.674 32.674 0 00-1.044 8.374zm17.823 0c0-5.551-1.257-10.505-3.269-13.768 5.865-2.307 10.8-4.18 12.202-4.532 4.08-1.006 10.059 23.644 6.092 24.631-1.603.396-8.499 1.32-16.15 2.288a32.446 32.446 0 001.125-8.619z" fill-rule="nonzero"/><path d="M615.63 483.321c-.691 0-1.25.56-1.25 1.25v5.074c0 .529.334 1.002.833 1.178l17.691 6.253h-27.648v-12.505a1.25 1.25 0 00-2.5 0v13.755c0 .691.559 1.25 1.25 1.25h36.186a1.25 1.25 0 00.416-2.428l-23.728-8.387v-4.19c0-.69-.56-1.25-1.25-1.25zM448.593 595.645c-.69 0-1.25.559-1.25 1.25v5.073c0 .513.314.974.791 1.163l15.884 6.269h-24.592v-12.505a1.25 1.25 0 10-2.5 0v13.755c0 .69.56 1.25 1.25 1.25h32.414a1.25 1.25 0 00.459-2.413l-21.206-8.369v-4.223a1.25 1.25 0 00-1.25-1.25z"/></g><path d="M416 611h100v153H416z" fill="#f8cd4b" fill-rule="nonzero" opacity=".3"/><path d="M261 691h100v73H261z" fill="#f8cd4b" fill-rule="nonzero" opacity=".2"/><path d="M571 499h100v265H571z" fill="#f8cd4b" fill-rule="nonzero" opacity=".6"/><path d="M679 501h-96v261h96zM426 611h100v153H426zm2 151h96V613h-96zm-157-71h100v73H271zm2 71h96v-69h-96zm408-263v265H581V499z" fill="url(#f)" opacity=".6" transform="translate(-10)"/><path d="M1117 16c0 4.418-3.58 8-8 8s-8-3.582-8-8 3.58-8 8-8 8 3.582 8 8z" fill="#f8cd4b" fill-rule="nonzero"/><path d="M1125 16c0 8.837-7.16 16-16 16s-16-7.163-16-16 7.16-16 16-16 16 7.163 16 16z" fill="#f8cd4b" fill-rule="nonzero" opacity=".3"/></g></svg>