<svg xmlns="http://www.w3.org/2000/svg" xmlns:xlink="http://www.w3.org/1999/xlink" fill="none" viewBox="0 0 719 494">
  <defs>
    <path id="reuse-0" fill="#000" d="M372.464 6.7c-5.088.75-8.927 4.898-9.373 9.958l-.129 1.469 2.005-.143.096-.979c.345-3.502 3.821-6.58 7.368-7.317a3.578 3.578 0 004.634 1.84 3.57 3.57 0 001.934-4.667 3.578 3.578 0 00-6.535-.161z"/>
  </defs>
  <filter id="e" width="40.63" height="32.998" x="313.554" y="98.407" color-interpolation-filters="sRGB" filterUnits="userSpaceOnUse">
    <feFlood flood-opacity="0" result="BackgroundImageFix"/>
    <feBlend in="SourceGraphic" in2="BackgroundImageFix" result="shape"/>
    <feGaussianBlur result="effect1_foregroundBlur" stdDeviation="2"/>
  </filter>
  <filter id="g" width="36.7" height="34.636" x="314.001" y="115.023" color-interpolation-filters="sRGB" filterUnits="userSpaceOnUse">
    <feFlood flood-opacity="0" result="BackgroundImageFix"/>
    <feBlend in="SourceGraphic" in2="BackgroundImageFix" result="shape"/>
    <feGaussianBlur result="effect1_foregroundBlur" stdDeviation="2"/>
  </filter>
  <filter id="i" width="41.604" height="31.141" x="316.864" y="87.183" color-interpolation-filters="sRGB" filterUnits="userSpaceOnUse">
    <feFlood flood-opacity="0" result="BackgroundImageFix"/>
    <feBlend in="SourceGraphic" in2="BackgroundImageFix" result="shape"/>
    <feGaussianBlur result="effect1_foregroundBlur" stdDeviation="2"/>
  </filter>
  <filter id="l" width="25.302" height="13.716" x="332.366" y="11.075" color-interpolation-filters="sRGB" filterUnits="userSpaceOnUse">
    <feFlood flood-opacity="0" result="BackgroundImageFix"/>
    <feBlend in="SourceGraphic" in2="BackgroundImageFix" result="shape"/>
    <feGaussianBlur result="effect1_foregroundBlur" stdDeviation="1"/>
  </filter>
  <filter id="m" width="6.896" height="6.401" x="334.847" y="15.297" color-interpolation-filters="sRGB" filterUnits="userSpaceOnUse">
    <feFlood flood-opacity="0" result="BackgroundImageFix"/>
    <feBlend in="SourceGraphic" in2="BackgroundImageFix" result="shape"/>
    <feGaussianBlur result="effect1_foregroundBlur" stdDeviation="1"/>
  </filter>
  <filter id="o" width="21.299" height="19.142" x="359.851" y="1.773" color-interpolation-filters="sRGB" filterUnits="userSpaceOnUse">
    <feFlood flood-opacity="0" result="BackgroundImageFix"/>
    <feBlend in="SourceGraphic" in2="BackgroundImageFix" result="shape"/>
    <feGaussianBlur result="effect1_foregroundBlur" stdDeviation="1"/>
  </filter>
  <filter id="p" width="7.071" height="6.174" x="371.257" y="4.056" color-interpolation-filters="sRGB" filterUnits="userSpaceOnUse">
    <feFlood flood-opacity="0" result="BackgroundImageFix"/>
    <feBlend in="SourceGraphic" in2="BackgroundImageFix" result="shape"/>
    <feGaussianBlur result="effect1_foregroundBlur" stdDeviation="1"/>
  </filter>
  <linearGradient id="a">
    <stop offset="0" stop-color="#fff"/>
    <stop offset="1" stop-color="#fff" stop-opacity="0"/>
  </linearGradient>
  <linearGradient id="b" x1="425.412" x2="405.447" y1="188.025" y2="121.905" gradientUnits="userSpaceOnUse" xlink:href="#a"/>
  <linearGradient id="c" x1="297.306" x2="317.271" y1="188.025" y2="121.905" gradientUnits="userSpaceOnUse" xlink:href="#a"/>
  <linearGradient id="d" x1="-8.741" x2="33.977" y1="9.807" y2="60.924" gradientUnits="userSpaceOnUse">
    <stop offset="0" stop-color="#fff"/>
    <stop offset=".643" stop-color="#ffeebc" stop-opacity="0"/>
  </linearGradient>
  <linearGradient id="f" x1="344.374" x2="310.887" y1="130.977" y2="102.364" gradientUnits="userSpaceOnUse">
    <stop offset="0" stop-color="#fffcf2"/>
    <stop offset="1" stop-color="#fffcf2" stop-opacity="0"/>
  </linearGradient>
  <linearGradient id="h" x1="344.505" x2="309.111" y1="145.667" y2="119.443" gradientUnits="userSpaceOnUse">
    <stop offset="0" stop-color="#333"/>
    <stop offset="1" stop-color="#fffcf2" stop-opacity="0"/>
  </linearGradient>
  <linearGradient id="j" x1="368.064" x2="313.57" y1="128.94" y2="91.734" gradientUnits="userSpaceOnUse">
    <stop offset="0" stop-color="#8a8a8a"/>
    <stop offset="1" stop-color="#fffcf2" stop-opacity="0"/>
  </linearGradient>
  <mask id="k" width="21" height="11" x="334" y="13" maskUnits="userSpaceOnUse">
    <path fill="#000" d="M339.474 16.443c3.879-3.372 9.532-3.586 13.67-.632l1.201.857-1.413 1.428-.807-.563c-2.887-2.017-7.49-1.383-10.358.828a3.568 3.568 0 01-1.614 4.713 3.578 3.578 0 01-4.807-1.57 3.569 3.569 0 011.571-4.8 3.568 3.568 0 012.557-.261z"/>
  </mask>
  <mask id="n" width="18" height="15" x="362" y="4" maskUnits="userSpaceOnUse">
    <use xlink:href="#reuse-0"/>
  </mask>
  <path fill="#f8cd4a" d="M675.244 463.209c-14.323 11.877-34.703 16.792-54.413 19.897l-3.318.505c-20.586 3.069-41.402 4.704-62.288 5.698-11.176.541-22.351.923-33.527 1.264l-8.758.258c-11.371.338-22.764.669-34.179.994-11.175.318-22.351.616-33.526.894-14.313.349-28.625.639-42.938.87-11.175.176-22.351.298-33.526.365-14.317.082-28.629.054-42.938-.083a2254.513 2254.513 0 01-33.526-.588c-14.32-.368-28.633-.907-42.937-1.617a1466.26 1466.26 0 01-29.11-1.711l-4.417-.311c-41.626-2.999-83.998-8.379-120.425-25.382l-.982-.465a81.128 81.128 0 01-1.464-.7 131.792 131.792 0 01-19.152-11.224c-10.77-7.679-19.663-17.051-24.362-28.169-7.364-17.439-3.47-37.041 4.94-54.092 8.412-17.051 21.04-32.444 31.962-48.501 3.2-4.704 6.235-9.584 9.058-14.588 17.646-31.379 26.398-67.691 7.9-97.93a134.323 134.323 0 00-7.9-11.171c-4.51-5.88-9.099-11.76-12.199-18.268-7.228-15.146-5.676-32.179-3.04-48.36 3.529-21.514 9.999-44.685 30.22-58.126 20.981-13.958 50.761-13.253 76.8-8.231 40.484 7.755 77.851 23.988 115.572 38.629 37.72 14.64 77.234 28.028 118.707 29.468 8.909.305 17.828-.019 26.692-.97a169.335 169.335 0 0034.773-7.32c16.322-5.374 31.174-13.459 42.184-24.694 23.616-24.019 67.995-25.835 99.992-11.33 30.532 13.84 50.278 43.132 48.819 72.389-1.659 32.567-26.057 59.343-48.414 86.807a527.592 527.592 0 00-7.993 10.03 343.94 343.94 0 00-4.282 5.645c-2.453 3.328-4.823 6.673-7.058 10.06-11.423 17.362-19.498 38.217-11.634 56.961 4.411 10.496 12.828 18.504 22.974 25.494 22.733 15.658 54.113 26.194 68.229 48.113 12.164 18.891 7.659 44.391-10.516 59.49z" opacity=".3"/>
  <path fill="#f8cd4a" d="M195.068 24.198a175.593 175.593 0 00-19.933-2.884c-32.379-2.553-64.661 6-91.482 24.236-44.923 30.714-64.387 87.2-75.64 138.051-12.704 57.087-11.362 118.34 11.75 172.716 31.603 74.367 109.014 131.561 189.899 125.378 35.212-2.671 68.733-16.545 103.837-20.498 40.322-4.54 80.832 4.113 121.328 6.677a406.913 406.913 0 00178.847-29.218c33.347-13.607 66.063-32.81 85.553-62.989 29.149-45.176 22.442-104.973 3.206-155.17-10.208-26.707-23.528-52.159-36.217-77.799-12.69-25.639-21.087-53.094-32.891-78.786-19.772-43.026-74.299-68.425-120.094-61.895-40.362 5.742-75.024 31.97-114.742 41.13-18.86 4.34-38.404 4.727-57.76 4.273-32.837-.761-65.728-3.886-97.693-11.404-16.03-3.726-31.858-8.627-47.968-11.818z" opacity=".1"/>
  <path fill="#fff" fill-opacity=".2" stroke="#ffe594" stroke-width="2" d="M377.15 68.375c0 26.106 21.445 47.292 47.925 47.292 26.481 0 47.925-21.186 47.925-47.292s-21.444-47.291-47.925-47.291c-26.48 0-47.925 21.185-47.925 47.291z"/>
  <path fill="url(#b)" stroke="#ffe594" stroke-width="2" d="M374.875 126.247c0 18.212 15.038 33.006 33.627 33.006 18.588 0 33.626-14.794 33.626-33.006 0-18.211-15.038-33.005-33.626-33.005-18.589 0-33.627 14.794-33.627 33.005z"/>
  <path fill="#fff" d="M469.685 93.627c-2.434 11.612-11.787 21.055-24.093 23.281l.632-1.512c.125-.299.39-.519.706-.593 10.902-2.556 18.327-8.34 22.755-21.176zM467.423 105.768c-1.445 6.68-6.997 12.112-14.303 13.392l.29-.672c.127-.296.392-.512.706-.585 6.362-1.494 10.706-4.828 13.307-12.135zM248.777 48.658c1.044-11.818 9.215-22.297 21.172-25.959l-.449 1.576a1.013 1.013 0 01-.631.672c-10.523 3.824-17.212 10.443-20.092 23.711zM249.588 36.335c.645-6.803 5.516-12.852 12.62-14.985l-.208.701a1.02 1.02 0 01-.633.665c-6.141 2.234-10.06 6.056-11.779 13.619z"/>
  <path fill="#fff" fill-opacity=".3" stroke="#ffe594" stroke-width="2" d="M345.568 68.375c0 26.106-21.444 47.292-47.925 47.292-26.48 0-47.925-21.186-47.925-47.292s21.445-47.291 47.925-47.291c26.481 0 47.925 21.185 47.925 47.291z"/>
  <path fill="url(#c)" stroke="#ffe594" stroke-width="2" d="M347.843 126.247c0 18.212-15.038 33.006-33.626 33.006-18.589 0-33.627-14.794-33.627-33.006 0-18.211 15.038-33.005 33.627-33.005 18.588 0 33.626 14.794 33.626 33.005z"/>
  <path fill="#fff" d="M282.689 143.948c2.078 10.151 10.059 18.406 20.562 20.352l-.514-1.258a1.017 1.017 0 00-.703-.601c-9.263-2.243-15.576-7.302-19.345-18.493zM284.619 154.562c1.234 5.839 5.972 10.587 12.207 11.707l-.221-.524a1.023 1.023 0 00-.704-.594c-5.389-1.314-9.072-4.231-11.282-10.589z"/>
  <path fill="#000" d="M347.29 156.646c-17.214-5.246-29.736-21.232-29.736-40.14 0-23.175 18.812-41.962 42.017-41.962s42.017 18.787 42.017 41.962c0 17.621-11.32 33.553-27.741 39.477-14.509 8.109-13.829 15.876-13.829 15.876s-.852-7.797-12.728-15.213z"/>
  <ellipse fill="#333" rx="48.275" ry="48.211" transform="matrix(-1 0 0 1 359.571 96.158)"/>
  <ellipse fill="#f8cd4a" rx="44.699" ry="44.64" transform="matrix(-1 0 0 1 359.571 96.158)"/>
  <path fill="#000" fill-rule="evenodd" d="M359.571 144.369c-26.661 0-48.275-21.585-48.275-48.211 0-26.627 21.614-48.212 48.275-48.212s48.275 21.585 48.275 48.212c0 26.626-21.614 48.211-48.275 48.211zm0-3.571c-24.686 0-44.699-19.986-44.699-44.64s20.013-44.64 44.699-44.64c24.687 0 44.699 19.986 44.699 44.64s-20.012 44.64-44.699 44.64z" clip-rule="evenodd"/>
  <path fill="#333" d="M317.714 120.193c.076.871.179 1.735.307 2.59-.081-1.096-.051-1.828-.031-2.118a44.662 44.662 0 01-.276-.472zM384.602 133.209c3.262-3.139 14.542-9.06 16.819-13.004-1.455 16.119-12.311 30.272-27.574 35.778-11.099 6.203-13.31 12.206-13.736 14.685.136-2.887-.093-5.318-3.669-12.461-5.776-11.537 9.396-10.329 16.092-13.031 7.496-3.025 10.616-9.671 12.068-11.967zM324.001 138.852c1.535 2.336 3.456 4.798 5.861 7.326a42.132 42.132 0 01-5.861-7.326zM344.342 155.626c.411.145.845.304 1.31.484-.44-.154-.877-.316-1.31-.484z"/>
  <path fill="#e0b739" d="M401.18 77.902c-4.706-16.197-21.362-28.17-41.188-28.17-19.898 0-36.603 12.06-41.238 28.346a44.432 44.432 0 00-3.882 18.22c0 20.105 11.714 34.923 29.502 41.821 10.339-.856 2.283-11.066 14.505-13.319.166-.031.346-.046.515-.047 23.363-.128 43.114-16.873 43.114-37.51 0-1.147-.058-2.281-.172-3.402h1.04a44.379 44.379 0 00-2.196-5.939z"/>
  <path fill="#333" d="M337.433 53.303h9.581a44.763 44.763 0 0112.557-1.785c4.359 0 8.573.623 12.557 1.785h9.58a48.118 48.118 0 00-22.137-5.356 48.12 48.12 0 00-22.138 5.356zM386.39 56.065v4.377c10.857 8.145 17.88 21.111 17.88 35.716 0 14.604-7.023 27.571-17.88 35.715v4.377c12.937-8.648 21.455-23.377 21.455-40.092s-8.518-31.444-21.455-40.093z"/>
  <ellipse fill="#333" rx="44.252" ry="44.194" transform="matrix(-1 0 0 1 360.018 77.669)"/>
  <path fill="#000" d="M322.463 87.956a43.952 43.952 0 01-5.802-21.893c0-24.408 19.812-44.194 44.251-44.194 24.44 0 44.252 19.786 44.252 44.194 0 22.362-18.847 41.226-40.799 43.875-3.081.372-5.507 3.153-5.832 6.24-.345 3.287-1.192 5.682-1.192 5.682-23.568-.233-40.938-18.865-41.973-42.203 1.513 3.162 4.021 5.896 7.095 8.299z"/>
  <ellipse fill="#f8cd4a" rx="48.821" ry="48.554" transform="matrix(-1 0 0 1 359.918 58.817)"/>
  <ellipse fill="url(#d)" rx="43.353" ry="46.43" transform="matrix(-.9597 -.28104 -.28172 .9595 360.912 56.875)"/>
  <path fill="#e0b739" d="M311.097 58.817c0 26.816 21.858 48.554 48.822 48.554 3.675-21.927-59.35-5.41-37.827-79.252-6.872 8.365-10.995 19.053-10.995 30.698z"/>
  <g filter="url(#e)">
    <path fill="url(#f)" d="M325.153 114.014l-7.599-11.607h1.788l5.811 7.143 7.599 8.035 13.857 6.696 3.576 3.125h-4.917l-12.516-6.696z"/>
  </g>
  <g filter="url(#g)">
    <path fill="url(#h)" d="M324.153 130.075l-6.152-11.052h1.341l4.501 6.599 8.91 7.412c.296.246.62.457.964.629l11.222 5.604a3.18 3.18 0 01-.39 5.855l-.949.324a3.967 3.967 0 01-3.344-.364l-9.598-5.844a4.997 4.997 0 01-1.602-1.561z"/>
  </g>
  <g filter="url(#i)">
    <path fill="url(#j)" d="M328.62 103.136l-7.61-10.72a.781.781 0 011.241-.948l6.225 7.578c.291.354.629.666 1.005.928l9.198 6.412c.433.302.912.533 1.417.686l13.18 3.97c.187.057.363.145.519.262 1.237.925.667 2.888-.873 3.006l-.111.008a1.7 1.7 0 01-.683-.086l-12.097-4.118a5.008 5.008 0 01-.88-.398l-8.944-5.139a5.01 5.01 0 01-1.587-1.441z"/>
  </g>
  <path fill="#000" d="M367.373 97.921l-.574.8-2.636-1.215.848-1.207c3.036-4.323 8.755-5.96 13.669-3.697l-1.204 2.678a8.2 8.2 0 00-10.103 2.641zM339.474 16.443c3.879-3.372 9.532-3.586 13.67-.632l1.201.857-1.413 1.428-.807-.563c-2.887-2.017-7.49-1.383-10.358.828a3.568 3.568 0 01-1.614 4.713 3.578 3.578 0 01-4.807-1.57 3.569 3.569 0 011.571-4.8 3.568 3.568 0 012.557-.261z"/>
  <g filter="url(#l)" mask="url(#k)">
    <path fill="#333" d="M338.881 15.774c3.88-3.372 9.533-3.585 13.671-.632l3.116 1.196-3.013 2.663-1.791-1.546a8.2 8.2 0 00-9.689.238 3.57 3.57 0 01-1.615 4.712 3.579 3.579 0 01-4.807-1.57 3.57 3.57 0 011.572-4.8 3.565 3.565 0 012.556-.261z"/>
  </g>
  <g filter="url(#m)">
    <ellipse fill="#676767" rx="1.578" ry="1.023" transform="matrix(.85233 -.52342 .5242 .85134 338.295 18.497)"/>
  </g>
  <ellipse cx="336.156" cy="52.41" fill="#000" rx="15.026" ry="15.178"/>
  <ellipse cx="340.596" cy="49.996" fill="#fff" rx="5.123" ry="5.174"/>
  <ellipse cx="335.815" cy="57.585" fill="#fff" rx="1.708" ry="1.725"/>
  <ellipse fill="#000" rx="15.026" ry="15.178" transform="matrix(-1 0 0 1 382.092 52.41)"/>
  <ellipse fill="#fff" rx="5.123" ry="5.174" transform="matrix(-1 0 0 1 377.652 49.996)"/>
  <ellipse fill="#fff" rx="1.708" ry="1.725" transform="matrix(-1 0 0 1 382.433 57.585)"/>
  <use xlink:href="#reuse-0"/>
  <g filter="url(#o)" mask="url(#n)">
    <path fill="#333" d="M372.341 5.816c-5.088.749-8.928 4.898-9.373 9.958l-1.117 3.141 3.984-.553-.01-2.364a8.185 8.185 0 016.483-7.195 3.577 3.577 0 004.634 1.84 3.57 3.57 0 001.933-4.666 3.577 3.577 0 00-6.534-.161z"/>
  </g>
  <g filter="url(#p)">
    <ellipse fill="#676767" rx="1.578" ry="1.023" transform="matrix(-.952 .30587 .30664 .95189 374.792 7.143)"/>
  </g>
  <g fill="#333">
    <path d="M288.454 281.136h-46.8v-5.76l29.52-68.976h6.336l-29.52 68.976h40.464v-32.832h6.048v32.832h12.528v5.76h-12.528v19.152h-6.048zM359.485 301.296c-8.064 0-15.024-2.208-20.88-6.624s-10.272-10.224-13.248-17.424c-2.976-7.296-4.464-15.216-4.464-23.76s1.488-16.416 4.464-23.616c3.072-7.2 7.536-12.96 13.392-17.28s12.768-6.48 20.736-6.48c8.064 0 15.024 2.208 20.88 6.624s10.272 10.272 13.248 17.568c3.072 7.296 4.608 15.216 4.608 23.76 0 8.64-1.536 16.56-4.608 23.76-3.072 7.104-7.536 12.816-13.392 17.136-5.856 4.224-12.768 6.336-20.736 6.336zm.288-5.472c7.104 0 13.104-2.016 18-6.048 4.896-4.128 8.496-9.408 10.8-15.84 2.4-6.528 3.6-13.392 3.6-20.592 0-7.392-1.296-14.256-3.888-20.592-2.496-6.336-6.192-11.424-11.088-15.264-4.896-3.936-10.752-5.904-17.568-5.904-6.912 0-12.864 1.968-17.856 5.904-4.896 3.936-8.592 9.12-11.088 15.552-2.496 6.336-3.744 13.152-3.744 20.448 0 7.392 1.248 14.352 3.744 20.88 2.592 6.432 6.336 11.616 11.232 15.552 4.992 3.936 10.944 5.904 17.856 5.904zM459.595 281.136h-46.8v-5.76l29.52-68.976h6.336l-29.52 68.976h40.464v-32.832h6.048v32.832h12.528v5.76h-12.528v19.152h-6.048zM152.14 342.504c-2.328 0-4.44-.54-6.336-1.62a11.88 11.88 0 01-4.428-4.428c-1.08-1.896-1.62-4.02-1.62-6.372v-.684c0-2.376.528-4.524 1.584-6.444 1.08-1.944 2.544-3.468 4.392-4.572 1.872-1.104 3.96-1.656 6.264-1.656s4.392.552 6.264 1.656 3.348 2.628 4.428 4.572c1.08 1.92 1.62 4.068 1.62 6.444v.684c0 2.376-.528 4.512-1.584 6.408a11.431 11.431 0 01-4.32 4.428c-1.848 1.056-3.936 1.584-6.264 1.584zm-.108-1.368c2.016 0 3.84-.48 5.472-1.44a10.274 10.274 0 003.888-3.96c.936-1.704 1.404-3.588 1.404-5.652v-.684c0-2.088-.48-3.984-1.44-5.688-.96-1.728-2.268-3.084-3.924-4.068s-3.48-1.476-5.472-1.476-3.804.492-5.436 1.476-2.916 2.34-3.852 4.068c-.936 1.704-1.404 3.6-1.404 5.688v.684c0 2.064.468 3.948 1.404 5.652.936 1.68 2.22 3 3.852 3.96 1.656.96 3.492 1.44 5.508 1.44zM176.651 323.82c1.656 0 3.06.408 4.212 1.224s2.016 1.92 2.592 3.312c.576 1.368.864 2.904.864 4.608 0 1.848-.348 3.48-1.044 4.896a7.587 7.587 0 01-2.988 3.276c-1.296.792-2.856 1.188-4.68 1.188-.96 0-2.508-.144-4.644-.432v9.468h-1.512v-22.356c0-1.056-.108-1.884-.324-2.484a6.132 6.132 0 00-1.008-1.8l1.008-.972c.504.48.912 1.032 1.224 1.656.336.624.528 1.272.576 1.944.504-1.224 1.248-2.112 2.232-2.664 1.008-.576 2.172-.864 3.492-.864zm-1.224 17.136c2.376 0 4.2-.708 5.472-2.124 1.272-1.44 1.908-3.324 1.908-5.652 0-1.44-.24-2.76-.72-3.96-.48-1.224-1.188-2.196-2.124-2.916-.912-.744-1.98-1.116-3.204-1.116-.936 0-1.836.216-2.7.648a5.786 5.786 0 00-2.124 1.764 4.652 4.652 0 00-.972 2.556v10.44c2.4.24 3.888.36 4.464.36zM193.392 342.396c-1.224 0-2.364-.216-3.42-.648s-2.076-1.104-3.06-2.016l.864-1.044c1.752 1.56 3.636 2.34 5.652 2.34 1.368 0 2.496-.348 3.384-1.044s1.332-1.632 1.332-2.808c0-.744-.192-1.356-.576-1.836s-.912-.888-1.584-1.224c-.648-.336-1.644-.78-2.988-1.332-1.248-.504-2.208-.936-2.88-1.296s-1.224-.816-1.656-1.368c-.408-.576-.612-1.284-.612-2.124 0-1.344.492-2.424 1.476-3.24 1.008-.816 2.34-1.224 3.996-1.224a7.83 7.83 0 014.284 1.26l-.72 1.152c-1.176-.696-2.352-1.044-3.528-1.044s-2.136.288-2.88.864c-.72.576-1.08 1.32-1.08 2.232 0 .504.132.936.396 1.296.288.336.756.684 1.404 1.044.648.336 1.668.804 3.06 1.404 1.44.624 2.508 1.14 3.204 1.548s1.236.9 1.62 1.476c.408.576.612 1.32.612 2.232 0 1.656-.576 2.976-1.728 3.96-1.152.96-2.676 1.44-4.572 1.44zM202.872 344.664c.36-.384.636-.816.828-1.296s.288-.96.288-1.44c0-.24-.024-.48-.072-.72a7.227 7.227 0 01-.036-.54c0-.312.084-.552.252-.72s.408-.252.72-.252.54.096.684.288c.144.168.216.396.216.684 0 1.272-.144 2.268-.432 2.988-.24.672-.756 1.308-1.548 1.908zM228.928 323.82c1.656 0 3.06.408 4.212 1.224s2.016 1.92 2.592 3.312c.576 1.368.864 2.904.864 4.608 0 1.848-.348 3.48-1.044 4.896a7.587 7.587 0 01-2.988 3.276c-1.296.792-2.856 1.188-4.68 1.188-.96 0-2.508-.144-4.644-.432v9.468h-1.512v-22.356c0-1.056-.108-1.884-.324-2.484a6.132 6.132 0 00-1.008-1.8l1.008-.972c.504.48.912 1.032 1.224 1.656.336.624.528 1.272.576 1.944.504-1.224 1.248-2.112 2.232-2.664 1.008-.576 2.172-.864 3.492-.864zm-1.224 17.136c2.376 0 4.2-.708 5.472-2.124 1.272-1.44 1.908-3.324 1.908-5.652 0-1.44-.24-2.76-.72-3.96-.48-1.224-1.188-2.196-2.124-2.916-.912-.744-1.98-1.116-3.204-1.116-.936 0-1.836.216-2.7.648a5.786 5.786 0 00-2.124 1.764 4.652 4.652 0 00-.972 2.556v10.44c2.4.24 3.888.36 4.464.36zM253.436 342.18c-.528-.432-.912-.876-1.152-1.332-.216-.48-.456-1.152-.72-2.016-.864 2.328-2.784 3.492-5.76 3.492-1.92 0-3.408-.48-4.464-1.44s-1.584-2.304-1.584-4.032c0-1.848.636-3.24 1.908-4.176s3.144-1.404 5.616-1.404h4.212v-1.584c0-1.608-.324-2.772-.972-3.492-.648-.744-1.716-1.116-3.204-1.116a10.18 10.18 0 00-3.024.468 8.756 8.756 0 00-2.664 1.368l-.72-1.116c1.8-1.44 3.948-2.16 6.444-2.16 1.92 0 3.336.468 4.248 1.404.936.912 1.404 2.328 1.404 4.248v7.632c0 1.872.444 3.324 1.332 4.356zm-7.596-1.224c1.704 0 3.072-.48 4.104-1.44 1.032-.984 1.548-2.256 1.548-3.816v-3.06h-4.032c-2.184 0-3.768.336-4.752 1.008-.96.672-1.44 1.728-1.44 3.168 0 1.344.408 2.376 1.224 3.096.816.696 1.932 1.044 3.348 1.044zm-.288-20.088l4.14-5.544 1.296 1.044-4.752 5.148zM266.656 351.396c-2.64 0-4.668-.516-6.084-1.548-1.416-1.008-2.124-2.712-2.124-5.112 0-.384.06-1.116.18-2.196.048-.264.096-.636.144-1.116a4.194 4.194 0 01-1.224-1.368 4.05 4.05 0 01-.432-1.836c0-.672.168-1.344.504-2.016.336-.696.924-1.224 1.764-1.584.312-.144.636-.228.972-.252.336-.048.888-.084 1.656-.108-1.104-1.08-1.656-2.52-1.656-4.32 0-1.32.288-2.46.864-3.42.6-.984 1.392-1.728 2.376-2.232 1.008-.504 2.136-.756 3.384-.756.912 0 1.752.168 2.52.504h5.832v1.332l-3.816-.216c.72.624 1.248 1.32 1.584 2.088s.504 1.644.504 2.628c0 1.968-.612 3.504-1.836 4.608-1.2 1.104-2.796 1.656-4.788 1.656-1.344 0-2.508-.264-3.492-.792-.528-.048-1.032-.072-1.512-.072s-.912.048-1.296.144c-.528.144-1.008.468-1.44.972-.408.48-.612 1.08-.612 1.8 0 .816.3 1.416.9 1.8s1.524.576 2.772.576l2.52-.072 3.096-.072c2.448 0 4.368.432 5.76 1.296 1.416.84 2.124 2.148 2.124 3.924 0 1.992-.876 3.444-2.628 4.356-1.728.936-3.9 1.404-6.516 1.404zm.396-16.632c1.584 0 2.82-.468 3.708-1.404s1.332-2.088 1.332-3.456c0-1.512-.492-2.724-1.476-3.636-.96-.912-2.184-1.368-3.672-1.368-1.536 0-2.772.468-3.708 1.404-.912.936-1.368 2.136-1.368 3.6 0 1.512.492 2.7 1.476 3.564s2.22 1.296 3.708 1.296zm-.468 15.264c2.256 0 4.104-.348 5.544-1.044s2.16-1.788 2.16-3.276c0-2.592-2.232-3.888-6.696-3.888-.576 0-1.32.024-2.232.072l-2.196.036c-.696 0-1.332-.012-1.908-.036s-1.008-.072-1.296-.144c.024.12.036.36.036.72l-.036 1.836c0 2.208.552 3.708 1.656 4.5 1.128.816 2.784 1.224 4.968 1.224zM279.485 324h1.62v18h-1.62zm.792-2.7c-.384 0-.696-.12-.936-.36s-.36-.552-.36-.936.12-.696.36-.936.552-.36.936-.36.696.12.936.36c.264.24.396.552.396.936s-.132.696-.396.936c-.24.24-.552.36-.936.36zM287.329 329.256c0-1.824-.456-3.276-1.368-4.356l.9-.9c1.104.84 1.716 2.1 1.836 3.78.84-1.368 1.764-2.364 2.772-2.988 1.032-.648 2.304-.972 3.816-.972 1.848 0 3.264.48 4.248 1.44.984.936 1.464 2.34 1.44 4.212l-.108 12.492h-1.44l.036-12.096c0-3.12-1.452-4.68-4.356-4.68-1.32 0-2.46.324-3.42.972-.936.624-1.884 1.608-2.844 2.952v12.852h-1.512zM318.757 342.18c-.528-.432-.912-.876-1.152-1.332-.216-.48-.456-1.152-.72-2.016-.864 2.328-2.784 3.492-5.76 3.492-1.92 0-3.408-.48-4.464-1.44s-1.584-2.304-1.584-4.032c0-1.848.636-3.24 1.908-4.176s3.144-1.404 5.616-1.404h4.212v-1.584c0-1.608-.324-2.772-.972-3.492-.648-.744-1.716-1.116-3.204-1.116a10.18 10.18 0 00-3.024.468 8.756 8.756 0 00-2.664 1.368l-.72-1.116c1.8-1.44 3.948-2.16 6.444-2.16 1.92 0 3.336.468 4.248 1.404.936.912 1.404 2.328 1.404 4.248v7.632c0 1.872.444 3.324 1.332 4.356zm-7.596-1.224c1.704 0 3.072-.48 4.104-1.44 1.032-.984 1.548-2.256 1.548-3.816v-3.06h-4.032c-2.184 0-3.768.336-4.752 1.008-.96.672-1.44 1.728-1.44 3.168 0 1.344.408 2.376 1.224 3.096.816.696 1.932 1.044 3.348 1.044zM334.228 329.256c0-1.824-.457-3.276-1.369-4.356l.901-.9c1.104.84 1.716 2.1 1.836 3.78.84-1.368 1.764-2.364 2.772-2.988 1.032-.648 2.304-.972 3.816-.972 1.848 0 3.264.48 4.248 1.44.984.936 1.464 2.34 1.44 4.212l-.108 12.492h-1.44l.036-12.096c0-3.12-1.452-4.68-4.356-4.68-1.32 0-2.46.324-3.42.972-.936.624-1.884 1.608-2.844 2.952v12.852h-1.512zM365.655 342.18c-.528-.432-.912-.876-1.152-1.332-.216-.48-.456-1.152-.72-2.016-.864 2.328-2.784 3.492-5.76 3.492-1.92 0-3.408-.48-4.464-1.44s-1.584-2.304-1.584-4.032c0-1.848.636-3.24 1.908-4.176s3.144-1.404 5.616-1.404h4.212v-1.584c0-1.608-.324-2.772-.972-3.492-.648-.744-1.716-1.116-3.204-1.116a10.18 10.18 0 00-3.024.468 8.756 8.756 0 00-2.664 1.368l-.72-1.116c1.8-1.44 3.948-2.16 6.444-2.16 1.92 0 3.336.468 4.248 1.404.936.912 1.404 2.328 1.404 4.248v7.632c0 1.872.444 3.324 1.332 4.356zm-7.596-1.224c1.704 0 3.072-.48 4.104-1.44 1.032-.984 1.548-2.256 1.548-3.816v-3.06h-4.032c-2.184 0-3.768.336-4.752 1.008-.96.672-1.44 1.728-1.44 3.168 0 1.344.408 2.376 1.224 3.096.816.696 1.932 1.044 3.348 1.044zm-5.292-20.664c.696-.552 1.32-.924 1.872-1.116a4.8 4.8 0 011.692-.324c.48 0 .876.06 1.188.18.336.12.684.288 1.044.504s.66.372.9.468c.264.096.576.144.936.144.816 0 1.704-.372 2.664-1.116l.9 1.116c-.648.504-1.212.864-1.692 1.08-.48.192-1.128.288-1.944.288-.456 0-.84-.048-1.152-.144a9.797 9.797 0 01-1.008-.504 5.97 5.97 0 00-.9-.432c-.24-.096-.54-.144-.9-.144a3.28 3.28 0 00-1.26.252c-.408.144-.888.432-1.44.864zM377.848 342.324c-1.704 0-3.216-.384-4.536-1.152-1.296-.768-2.316-1.848-3.06-3.24-.72-1.392-1.08-2.988-1.08-4.788 0-1.824.36-3.432 1.08-4.824.744-1.416 1.776-2.52 3.096-3.312s2.832-1.188 4.536-1.188 3.216.396 4.536 1.188c1.32.768 2.34 1.86 3.06 3.276.744 1.392 1.116 3 1.116 4.824 0 1.8-.372 3.408-1.116 4.824-.72 1.392-1.74 2.472-3.06 3.24s-2.844 1.152-4.572 1.152zm.036-1.368c1.416 0 2.664-.336 3.744-1.008 1.104-.672 1.956-1.608 2.556-2.808.6-1.224.9-2.616.9-4.176 0-1.536-.3-2.892-.9-4.068s-1.452-2.088-2.556-2.736c-1.08-.648-2.328-.972-3.744-.972s-2.676.336-3.78 1.008c-1.08.648-1.92 1.572-2.52 2.772s-.9 2.58-.9 4.14c0 1.536.3 2.904.9 4.104.6 1.176 1.44 2.1 2.52 2.772 1.104.648 2.364.972 3.78.972zM401.237 333.54c0 1.776.432 3.468 1.296 5.076.888 1.584 2.652 2.376 5.292 2.376.984 0 1.908-.132 2.772-.396.864-.288 1.836-.732 2.916-1.332l.684 1.116a12.277 12.277 0 01-3.096 1.476 12.167 12.167 0 01-3.492.504c-2.496 0-4.44-.792-5.832-2.376-1.368-1.584-2.052-3.708-2.052-6.372 0-1.896.324-3.588.972-5.076s1.56-2.64 2.736-3.456c1.2-.84 2.604-1.26 4.212-1.26 1.392 0 2.628.324 3.708.972a6.42 6.42 0 012.556 2.628c.624 1.104.936 2.376.936 3.816 0 .432-.048 1.2-.144 2.304zm12.024-1.368c.048-.264.072-.6.072-1.008 0-1.152-.264-2.184-.792-3.096-.504-.936-1.188-1.656-2.052-2.16a5.35 5.35 0 00-2.844-.792c-1.68 0-3.108.648-4.284 1.944-1.152 1.296-1.836 3-2.052 5.112zM419.657 329.256c0-1.824-.456-3.276-1.368-4.356l.9-.9c1.104.84 1.716 2.1 1.836 3.78.84-1.368 1.764-2.364 2.772-2.988 1.032-.648 2.304-.972 3.816-.972 1.848 0 3.264.48 4.248 1.44.984.936 1.464 2.34 1.44 4.212l-.108 12.492h-1.44l.036-12.096c0-3.12-1.452-4.68-4.356-4.68-1.32 0-2.46.324-3.42.972-.936.624-1.884 1.608-2.844 2.952v12.852h-1.512zM445.937 342.216c-2.592 0-4.62-.78-6.084-2.34-1.44-1.584-2.16-3.78-2.16-6.588 0-1.944.348-3.636 1.044-5.076.696-1.464 1.692-2.592 2.988-3.384s2.796-1.188 4.5-1.188c1.92 0 3.576.66 4.968 1.98l-.972.972c-.576-.552-1.188-.948-1.836-1.188-.648-.264-1.368-.396-2.16-.396-1.368 0-2.592.36-3.672 1.08-1.056.696-1.884 1.68-2.484 2.952-.576 1.272-.864 2.724-.864 4.356 0 2.304.612 4.128 1.836 5.472 1.248 1.32 2.94 1.98 5.076 1.98.888 0 1.788-.132 2.7-.396.936-.288 1.944-.732 3.024-1.332l.684 1.116a12.766 12.766 0 01-3.168 1.476 12.17 12.17 0 01-3.42.504zM463.98 342.324c-1.704 0-3.215-.384-4.535-1.152-1.296-.768-2.317-1.848-3.061-3.24-.72-1.392-1.079-2.988-1.079-4.788 0-1.824.359-3.432 1.079-4.824.744-1.416 1.776-2.52 3.096-3.312s2.833-1.188 4.537-1.188 3.215.396 4.535 1.188c1.32.768 2.341 1.86 3.061 3.276.744 1.392 1.116 3 1.116 4.824 0 1.8-.372 3.408-1.116 4.824-.72 1.392-1.741 2.472-3.061 3.24s-2.844 1.152-4.572 1.152zm.037-1.368c1.416 0 2.663-.336 3.743-1.008 1.104-.672 1.956-1.608 2.556-2.808.6-1.224.9-2.616.9-4.176 0-1.536-.3-2.892-.9-4.068s-1.452-2.088-2.556-2.736c-1.08-.648-2.327-.972-3.743-.972s-2.676.336-3.78 1.008c-1.08.648-1.921 1.572-2.521 2.772s-.9 2.58-.9 4.14c0 1.536.3 2.904.9 4.104.6 1.176 1.441 2.1 2.521 2.772 1.104.648 2.364.972 3.78.972zM477.243 329.256c0-1.824-.456-3.276-1.368-4.356l.9-.9c1.104.84 1.716 2.1 1.836 3.78.84-1.368 1.764-2.364 2.772-2.988 1.032-.648 2.304-.972 3.816-.972 1.848 0 3.264.48 4.248 1.44.984.936 1.464 2.34 1.44 4.212l-.108 12.492h-1.44l.036-12.096c0-3.12-1.452-4.68-4.356-4.68-1.32 0-2.46.324-3.42.972-.936.624-1.884 1.608-2.844 2.952v12.852h-1.512zM501.255 342.468c-1.68 0-2.928-.444-3.744-1.332-.792-.912-1.188-2.304-1.188-4.176v-17.388h1.512v4.608h5.796v1.44h-5.796v11.34c0 1.536.336 2.616 1.008 3.24.696.6 1.488.9 2.376.9.816 0 1.56-.18 2.232-.54l.756 1.26c-.72.432-1.704.648-2.952.648zM515.268 323.82c.336 0 .96.084 1.872.252v1.368c-.696-.12-1.296-.18-1.8-.18-1.368 0-2.472.336-3.312 1.008-.36.312-.744.72-1.152 1.224-.408.48-.756.996-1.044 1.548v12.924h-1.512v-12.996c0-1.056-.108-1.884-.324-2.484a6.132 6.132 0 00-1.008-1.8l1.008-.972c.528.504.948 1.08 1.26 1.728.336.624.528 1.284.576 1.98.312-.624.684-1.188 1.116-1.692s.864-.888 1.296-1.152c.816-.504 1.824-.756 3.024-.756zM532.893 342.18c-.528-.432-.911-.876-1.151-1.332-.216-.48-.456-1.152-.72-2.016-.864 2.328-2.784 3.492-5.76 3.492-1.92 0-3.408-.48-4.464-1.44s-1.584-2.304-1.584-4.032c0-1.848.635-3.24 1.907-4.176s3.145-1.404 5.617-1.404h4.211v-1.584c0-1.608-.323-2.772-.971-3.492-.648-.744-1.717-1.116-3.205-1.116-1.008 0-2.015.156-3.023.468a8.756 8.756 0 00-2.664 1.368l-.72-1.116c1.8-1.44 3.948-2.16 6.444-2.16 1.92 0 3.335.468 4.247 1.404.936.912 1.405 2.328 1.405 4.248v7.632c0 1.872.444 3.324 1.332 4.356zm-7.595-1.224c1.704 0 3.071-.48 4.103-1.44 1.032-.984 1.548-2.256 1.548-3.816v-3.06h-4.031c-2.184 0-3.769.336-4.753 1.008-.96.672-1.44 1.728-1.44 3.168 0 1.344.408 2.376 1.224 3.096.816.696 1.933 1.044 3.349 1.044zM544.429 342.324c-1.584 0-2.952-.408-4.104-1.224-1.128-.816-1.992-1.92-2.592-3.312-.576-1.392-.864-2.928-.864-4.608 0-1.824.336-3.444 1.008-4.86s1.656-2.52 2.952-3.312c1.32-.792 2.892-1.188 4.716-1.188.576 0 1.332.036 2.268.108s1.74.156 2.412.252v-8.388h1.512v21.132c0 1.824.444 3.276 1.332 4.356l-.9.9c-.936-.744-1.548-1.932-1.836-3.564-.504 1.272-1.284 2.208-2.34 2.808s-2.244.9-3.564.9zm.108-1.404c1.152 0 2.184-.288 3.096-.864s1.596-1.332 2.052-2.268c.36-.696.54-1.524.54-2.484v-9.684c-1.44-.168-2.472-.276-3.096-.324s-1.26-.072-1.908-.072c-1.368 0-2.568.348-3.6 1.044s-1.824 1.644-2.376 2.844c-.528 1.176-.792 2.496-.792 3.96 0 1.416.228 2.724.684 3.924.48 1.176 1.176 2.124 2.088 2.844.936.72 2.04 1.08 3.312 1.08zM570.054 342.18c-.528-.432-.912-.876-1.152-1.332-.216-.48-.456-1.152-.72-2.016-.864 2.328-2.784 3.492-5.76 3.492-1.92 0-3.408-.48-4.464-1.44s-1.584-2.304-1.584-4.032c0-1.848.636-3.24 1.908-4.176s3.144-1.404 5.616-1.404h4.212v-1.584c0-1.608-.324-2.772-.972-3.492-.648-.744-1.716-1.116-3.204-1.116a10.18 10.18 0 00-3.024.468 8.756 8.756 0 00-2.664 1.368l-.72-1.116c1.8-1.44 3.948-2.16 6.444-2.16 1.92 0 3.336.468 4.248 1.404.936.912 1.404 2.328 1.404 4.248v7.632c0 1.872.444 3.324 1.332 4.356zm-7.596-1.224c1.704 0 3.072-.48 4.104-1.44 1.032-.984 1.548-2.256 1.548-3.816v-3.06h-4.032c-2.184 0-3.768.336-4.752 1.008-.96.672-1.44 1.728-1.44 3.168 0 1.344.408 2.376 1.224 3.096.816.696 1.932 1.044 3.348 1.044zM577.045 342.108c-.384 0-.696-.12-.936-.36s-.36-.552-.36-.936.12-.696.36-.936.552-.36.936-.36.696.12.936.36c.264.24.396.552.396.936s-.132.696-.396.936c-.24.24-.552.36-.936.36z"/>
  </g>
</svg>
