<svg fill="none" height="475" viewBox="0 0 435 475" width="435" xmlns="http://www.w3.org/2000/svg" xmlns:xlink="http://www.w3.org/1999/xlink"><mask id="a" height="475" maskUnits="userSpaceOnUse" width="435" x="0" y="0"><path d="m0 0h435v475h-435z" fill="#c4c4c4"/></mask><g fill="#f8cd4a" mask="url(#a)"><path d="m643.102 438.936c-13.613 11.293-32.983 15.966-51.716 18.918l-3.153.481c-19.567 2.918-39.351 4.472-59.202 5.417-10.622.514-21.243.877-31.865 1.202l-8.324.246c-10.808.32-21.636.635-32.485.944-10.622.302-21.244.586-31.865.85-13.603.332-27.207.608-40.81.828-10.621.167-21.243.283-31.865.346-13.607.078-27.21.052-40.809-.078-10.629-.108-21.251-.295-31.865-.559-13.611-.35-27.214-.863-40.81-1.538-9.227-.45-18.45-.993-27.666-1.626l-4.198-.297c-39.563-2.851-79.836-7.966-114.457-24.133l-.9336-.442c-.464-.218-.928-.436-1.392-.665-6.3567-3.039-12.4456-6.609-18.2021-10.672-10.2359-7.301-18.6885-16.212-23.1552-26.784-6.9991-16.581-3.2983-35.219 4.6959-51.431s19.9966-30.847 30.3779-46.115c3.0411-4.472 5.9257-9.112 8.6091-13.869 16.771-29.836 25.089-64.362 7.5078-93.113-2.3207-3.666-4.8265-7.211-7.5078-10.622-4.2878-5.591-8.6483-11.181-11.5944-17.369-6.8705-14.401-5.3946-30.597-2.8902-45.981 3.3542-20.455 9.5036-42.4869 28.7236-55.2665 19.94-13.2715 48.244-12.6007 72.993-7.8265 38.478 7.3737 73.993 22.8087 109.844 36.7287 35.851 13.9203 73.407 26.6493 112.824 28.0193 8.468.289 16.945-.019 25.369-.923 11.231-1.154 22.308-3.487 33.05-6.96 15.513-5.109 29.629-12.796 40.094-23.4794 22.445-22.8366 64.624-24.564 95.036-10.7726 29.019 13.1597 47.786 41.011 46.4 68.829-1.577 30.965-24.765 56.423-46.014 82.536-2.578 3.164-5.121 6.339-7.598 9.537-1.382 1.785-2.739 3.574-4.069 5.367-2.332 3.164-4.584 6.345-6.709 9.565-10.856 16.508-18.532 36.337-11.057 54.159 4.192 9.979 12.192 17.593 21.835 24.24 21.607 14.887 51.431 24.905 64.848 45.746 11.561 17.962 7.279 42.207-9.995 56.563z" opacity=".3"/><path d="m196.3 21.1204c-6.253-1.2796-12.575-2.198-18.935-2.7505-30.758-2.4344-61.424 5.7209-86.9022 23.1112-42.6739 29.2868-61.163 83.1489-71.8537 131.6379-12.06699 54.435-10.79276 112.843 11.1622 164.694 30.0208 70.912 103.5567 125.449 180.3927 119.553 33.448-2.546 65.291-15.776 98.638-19.545 38.303-4.33 76.785 3.922 115.254 6.366 58.009 3.648 116.093-5.877 169.893-27.86 31.677-12.976 62.756-31.286 81.27-60.064 27.689-43.077 21.318-100.097 3.046-147.962-9.697-25.467-22.35-49.736-34.405-74.185-12.054-24.448-20.03-50.6275-31.244-75.1265-18.782-41.027-70.579-65.24593-114.081-59.0193039-38.342 5.4753639-71.268 30.4837039-108.998 39.2188039-17.916 4.1384-36.481 4.5077-54.868 4.0747-31.193-.7258-62.437-3.7054-92.802-10.8743-15.227-3.5526-30.263-8.2258-45.567-11.269z" opacity=".1"/></g></svg>