<svg fill="none" height="541" viewBox="0 0 789 541" width="789" xmlns="http://www.w3.org/2000/svg"><path d="m729.986 507.211c-15.717 13.033-38.082 18.427-59.711 21.834l-3.64.555c-22.591 3.368-45.433 5.162-68.353 6.252-12.264.594-24.527 1.013-36.791 1.387l-9.611.284c-12.479.37-24.981.734-37.507 1.091-12.264.348-24.527.675-36.791.98-15.706.383-31.412.701-47.118.955-12.263.194-24.527.327-36.79.4-15.711.091-31.417.06-47.118-.09-12.272-.125-24.536-.34-36.791-.645-15.715-.405-31.421-.996-47.118-1.775-10.654-.52-21.302-1.146-31.943-1.877l-4.848-.342c-45.678-3.291-92.177-9.194-132.1493-27.854l-1.0779-.509c-.5358-.252-1.0715-.504-1.6072-.768-7.3393-3.508-14.3695-7.628-21.0159-12.317-11.8182-8.427-21.5774-18.711-26.7346-30.912-8.081-19.137-3.8082-40.648 5.4218-59.359 9.2299-18.711 23.0878-35.603 35.0738-53.223 3.5112-5.162 6.8418-10.517 9.9399-16.008 19.3634-34.434 28.9674-74.282 8.6684-107.465-2.6794-4.231-5.5726-8.323-8.6684-12.259-4.9506-6.452-9.9851-12.904-13.3866-20.047-7.9326-16.62-6.2286-35.312-3.337-53.068 3.8727-23.608 10.9726-49.0358 33.163-63.7853 23.023-15.3172 55.703-14.5429 84.277-9.0329 44.426 8.5103 85.432 26.3245 126.825 42.3902 41.392 16.066 84.754 30.757 130.264 32.338 9.777.334 19.565-.022 29.291-1.065 12.966-1.332 25.757-4.024 38.159-8.033 17.911-5.897 34.209-14.769 46.292-27.098 25.915-26.3571 74.614-28.3508 109.727-12.4336 33.505 15.1886 55.173 47.3326 53.572 79.4376-1.82 35.738-28.594 65.121-53.127 95.259-2.976 3.651-5.912 7.316-8.772 11.007-1.596 2.06-3.162 4.125-4.699 6.194-2.691 3.652-5.292 7.323-7.745 11.039-12.535 19.053-21.397 41.939-12.767 62.508 4.841 11.517 14.077 20.305 25.211 27.976 24.947 17.182 59.382 28.744 74.873 52.797 13.347 20.731 8.403 48.713-11.541 65.282z" fill="#f8cd4a" opacity=".3"/><path d="m214.058 25.4565c-7.224-1.4725-14.527-2.5294-21.873-3.1652-35.532-2.8016-70.957 6.5837-100.3897 26.5968-49.2968 33.7038-70.6553 95.6899-83.00531 151.4919-13.9397 62.645-12.4677 129.862 12.89461 189.533 34.68 81.607 119.6284 144.369 208.3894 137.585 38.639-2.931 75.424-18.157 113.946-22.494 44.248-4.982 88.702 4.513 133.141 7.327 67.013 4.198 134.11-6.764 196.26-32.063 36.594-14.932 72.496-36.004 93.884-69.122 31.986-49.574 24.626-115.194 3.518-170.278-11.202-29.308-25.819-57.238-39.744-85.373-13.925-28.136-23.14-58.2639-36.093-86.4579-21.697-47.2148-81.534-75.08638-131.787-67.92064-44.292 6.30116-82.328 35.08134-125.914 45.13384-20.696 4.7625-42.143 5.1875-63.384 4.6893-36.034-.8353-72.127-4.2643-107.204-12.5144-17.591-4.0884-34.96-9.4664-52.639-12.9687z" fill="#f8cd4a" opacity=".1"/><g stroke="#000" stroke-width="2.5"><g stroke-miterlimit="10"><path d="m264.609 123.195c-3.813.742-7.685 1.134-11.57 1.171-1.941 0-4.18-.091-6.587-.304"/><path d="m211.023 113.262c-12.243-7.235-22.442-18.7659-24.59-36.6518-.984-29.5402 20.63-43.4205 48.669-43.6082 34.671-.2265 65.57 18.6366 90.173 18.6366s18.449-7.4547 53.71-7.927c25.301-.2071 37.357 15.1615 37.014 39.3761.265 25.2823-20.513 36.8843-41.855 36.8843-21.341 0-47.154-6.956-64.018-6.956-6.412 0-13.453 1.644-20.765 3.676"/><g stroke-linecap="round"><path d="m296.79 157.226c-1.437-.369-2.88-.705-4.219-.957"/><path d="m253.292 110.512c11.136 11.835 32.044 37.836 43.673 46.753"/><path d="m289.329 116.711c-14.237-11.816-27.735-19.7042-34.18-22.0338"/><path d="m278.593 188.339c10.516 2.621 41.337 7.823 57.715-4.4-6.109-27.062-27.282-50.901-46.979-67.228"/></g></g><path d="m292.571 156.269c-1.508 9.557-13.272 34.458-17.472 35.59-.74.099-1.493.048-2.213-.149" stroke-linecap="round" stroke-linejoin="round"/><path d="m254.282 143.197c13.33 0 29.164 4.665 35.474 7.914" stroke-linecap="round" stroke-miterlimit="10"/><path d="m210.117 138.383c2.064-1.811 4.313-3.399 6.71-4.737" stroke-miterlimit="10"/><path d="m196.405 239.919c-1.799-7.72-3.145-14.954-4.096-21.73" stroke-linecap="round" stroke-linejoin="round"/><path d="m241.54 131.84c29.851 14.935 43.679 95.972 25.677 121.507-14.469 1.792-51.192 1.74-64.458-3.359" stroke-linecap="round" stroke-linejoin="round"/><path d="m205.348 197.67c-2.977 5.112-8.413 13.731-13.039 20.52" stroke-miterlimit="10"/><g stroke-linecap="round"><path d="m187.442 224.855c8.95 14.1 27.826 48.791 29.431 53.062-1.579 4.53-2.996 9.105-8.128 13.266-4.4-2.505-45.757-46.132-49.309-60.116-2.873-11.312 9.176-40.431 15.129-52.655" stroke-linejoin="round"/><path d="m192.309 218.189c-1.793 2.634-3.456 4.996-4.802 6.769" stroke-linejoin="round"/><path d="m241.54 131.84c-.058-1.462-.103-2.808-.129-3.824" stroke-linejoin="round"/><path d="m221.804 144.323c4.196.514 8.442.486 12.631-.084" stroke-miterlimit="10"/></g><path d="m215.591 121.04c.207 1.644 1.295 13.207 1.825 19.012" stroke-miterlimit="10"/><path d="m212.912 193.127c-1.637 2.828-3.054 4.659-3.921 4.996-4.659 1.863-35.487-17.388-36.128-22.37-.64-4.983 24.823-46.469 44.566-35.546" stroke-linecap="round" stroke-linejoin="round"/><path d="m221.752 144.316c1.863 3.016 2.588 7.002 2.588 11.435" stroke-linecap="round" stroke-linejoin="round"/></g><path d="m253.292 83.1523c.743 2.6986 1.262 5.4538 1.553 8.2377.629 5.7629.284 11.591-1.023 17.239l6.685 5.701 12.353-14.4889z" fill="#000"/><g stroke="#000" stroke-width="2.5"><path d="m217.429 140.207.395.22c1.607.953 2.956 2.287 3.928 3.883" stroke-miterlimit="10"/><g stroke-linecap="round" stroke-linejoin="round"><path d="m246.193 124.043c6.471-7.119 10.049-19.297 8.652-32.6532-.64-6.2585-2.444-12.3422-5.32-17.9377-2.182 2.3555-4.454 4.6182-6.813 6.7881"/><path d="m211.023 113.268c5.241 11.15 14.107 18.177 23.425 17.142 4.478-.492 8.483-2.783 11.745-6.367"/><path d="m207.457 102.63c.784 3.674 1.98 7.247 3.566 10.651"/><path d="m215.054 99.207c-2.484 1.225-5.017 2.362-7.597 3.41"/></g></g><path d="m267.987 253.094.059-.355h-.408c-.142.207-.278.427-.421.647-14.805 1.831-52.874 1.734-65.357-3.721 7.261 13.032 14.036 25.819 14.98 28.323-1.578 4.53-2.996 9.105-8.127 13.266-1.217-.692-5.261-4.53-10.548-10.017 2.479 62.969 7.811 197.599 8.186 202.64 4.62-.046 23.082.129 23.082.129l27.644-165.658c11.499 4.808 38.645 12.237 52.073 9.668l21.71 112.9 18.811.168s12.081-133.484 12.729-146.07c-14.78-22.636-82.823-40.865-94.413-41.92z" fill="#000"/><g stroke="#000" stroke-linecap="round" stroke-linejoin="round" stroke-width="2.5"><path d="m208.525 483.236v12.243l33.028 32.614-18.714-33.164v-11.693"/><path d="m333.163 439.88v33.798h49.672l-37.474-20.811v-11.887"/></g></svg>