<svg fill="none" height="24" viewBox="0 0 24 24" width="24" xmlns="http://www.w3.org/2000/svg"><path clip-rule="evenodd" d="m23.7162 22.34-10.3419-10.341 10.3389-10.339c.38-.38.38-.995 0-1.375-.3799-.379-.9949-.379-1.3739 0l-10.3391 10.339-10.33895-10.339c-.38-.38-.996-.38-1.375 0-.38.379-.38.995 0 1.374l10.33895 10.34-10.34095 10.34c-.379.38-.379.995 0 1.375.38.379.996.379 1.375 0l10.34095-10.341 10.341 10.341c.38.38.9951.38 1.375 0 .379-.379.379-.995 0-1.374z" fill="#32363e" fill-rule="evenodd"/></svg>