<svg fill="none" height="57" viewBox="0 0 57 57" width="57" xmlns="http://www.w3.org/2000/svg"><circle cx="28.5" cy="28.5" fill="#f8cd4b" r="28.5"/><path clip-rule="evenodd" d="m22.411 17.685c-.0338-1.5241-1.1281-2.685-2.9052-2.685-1.777 0-2.9388 1.1609-2.9388 2.685 0 1.4926 1.1275 2.6869 2.8714 2.6869h.0332c1.8113 0 2.9394-1.1943 2.9394-2.6869zm-.3419 4.8087h-5.1946v15.5445h5.1946zm12.7527-.3653c3.4183 0 5.981 2.2222 5.981 6.9968l-.0002 8.9128h-5.1945v-8.3164c0-2.0888-.7517-3.5142-2.6322-3.5142-1.4351 0-2.2899.9609-2.6653 1.889-.1374.3326-.1711.7961-.1711 1.2606v8.6814h-5.1953s.0685-14.0859 0-15.5446h5.1953v2.2018c.6895-1.0584 1.9243-2.5672 4.6823-2.5672z" fill="#3e3e3e" fill-rule="evenodd"/></svg>