<svg fill="none" height="57" viewBox="0 0 57 57" width="57" xmlns="http://www.w3.org/2000/svg"><circle cx="28.5" cy="28.5" fill="#f8cd4b" r="28.5"/><path clip-rule="evenodd" d="m28.4168 15c-3.69 0-4.1531.0157-5.6024.08-1.4465.0645-2.4338.2876-3.2977.6149-.8936.338-1.6517.7903-2.4069 1.5262-.7558.7357-1.22 1.4741-1.5682 2.3444-.3368.8418-.5661 1.8039-.6312 3.2124-.0648 1.4118-.0818 1.8632-.0818 5.4578s.0164 4.0443.0821 5.4561c.0665 1.4091.2955 2.3709.6312 3.2125.3473.8705.8116 1.6089 1.5671 2.3446.7549.7362 1.5129 1.1896 2.406 1.5276.8645.3273 1.8521.5504 3.2982.6149 1.4493.0643 1.9121.08 5.6019.08 3.6902 0 4.1519-.0157 5.6012-.08 1.4465-.0645 2.4349-.2876 3.2994-.6149.8933-.338 1.6502-.7914 2.4052-1.5276.7557-.7357 1.22-1.4741 1.5681-2.3444.3341-.8418.5633-1.8039.6313-3.2124.0651-1.4118.0821-1.8618.0821-5.4564s-.017-4.0457-.0821-5.4575c-.068-1.4091-.2972-2.3709-.6313-3.2124-.3481-.8706-.8124-1.609-1.5681-2.3447-.7558-.7362-1.5116-1.1884-2.4061-1.5262-.8661-.3273-1.854-.5504-3.3005-.6149-1.4493-.0643-1.9106-.08-5.6018-.08zm-1.2189 2.3852c.3618-.0005.7654 0 1.2189 0 3.6277 0 4.0577.0127 5.4903.0761 1.3247.059 2.0437.2747 2.5227.4558.634.2399 1.0861.5267 1.5613.9899.4756.4633.77.9045 1.0168 1.5221.186.4661.4076 1.1664.4679 2.4569.0651 1.3953.0793 1.8144.0793 5.3467s-.0142 3.9514-.0793 5.3467c-.0606 1.2904-.2819 1.9908-.4679 2.4568-.2463.6177-.5412 1.0575-1.0168 1.5205-.4755.4632-.927.75-1.5613.9899-.4784.182-1.198.3971-2.5227.4561-1.4323.0634-1.8626.0772-5.4903.0772-3.628 0-4.058-.0138-5.4903-.0772-1.3247-.0596-2.0437-.2752-2.5229-.4564-.6341-.2399-1.087-.5266-1.5625-.9899-.4756-.4632-.7699-.9033-1.0168-1.5213-.1859-.466-.4076-1.1664-.4679-2.4568-.0651-1.3953-.0781-1.8144-.0781-5.3489s.013-3.9514.0781-5.3467c.0606-1.2905.282-1.9909.4679-2.4574.2463-.6177.5412-1.0589 1.0168-1.5221.4755-.4633.9284-.75 1.5625-.9905.4789-.182 1.1982-.3971 2.5229-.4563 1.2534-.0552 1.7392-.0717 4.2714-.0745zm8.4714 2.1976c-.9002 0-1.6305.7106-1.6305 1.5877 0 .8769.7303 1.5883 1.6305 1.5883.9001 0 1.6304-.7114 1.6304-1.5883 0-.8768-.7303-1.5877-1.6304-1.5877zm-7.2526 1.8558c-3.8533 0-6.9775 3.0434-6.9775 6.7971s3.1242 6.7957 6.9775 6.7957 6.9764-3.042 6.9764-6.7957-3.1231-6.7971-6.9764-6.7971zm-.0001 2.3852c2.5012 0 4.529 1.9751 4.529 4.4119 0 2.4364-2.0278 4.4119-4.529 4.4119-2.5014 0-4.529-1.9755-4.529-4.4119 0-2.4368 2.0276-4.4119 4.529-4.4119z" fill="#414141" fill-rule="evenodd"/></svg>