<svg fill="none" height="57" viewBox="0 0 57 57" width="57" xmlns="http://www.w3.org/2000/svg"><circle cx="28.5" cy="28.5" fill="#f8cd4b" r="28.5"/><path d="m16.8944 22.59c.0184-.1715-.0063-.3448-.0723-.5057-.0659-.1608-.1712-.3048-.3074-.4203l-2.8128-3.188v-.476h8.7331l6.7498 13.9286 5.9347-13.9286h8.3249v.4762l-2.4046 2.1693c-.1018.0729-.1804.1706-.2275.2825s-.0608.2338-.0397.3525v15.939c-.0211.1187-.0074.2406.0397.3525s.1257.2096.2275.2825l2.3483 2.1693v.4762h-11.8124v-.4762l2.4328-2.2223c.2391-.225.2391-.291.2391-.6347v-12.8837l-6.7641 16.1639h-.9142l-7.875-16.1639v10.8333c-.0324.2248-.0099.4536.0656.669s.2022.4119.3704.5744l3.1639 3.611v.4762h-8.9717v-.476l3.164-3.6112c.1668-.1627.2906-.3599.3615-.5759s.0867-.4446.0464-.6675z" fill="#3e3e3e"/></svg>