<svg fill="none" height="24" viewBox="0 0 28 24" width="28" xmlns="http://www.w3.org/2000/svg"><path clip-rule="evenodd" d="m1.16667 0h25.66663c.644 0 1.1667.447 1.1667 1s-.5227 1-1.1667 1h-25.66663c-.644003 0-1.16667-.447-1.16667-1s.522667-1 1.16667-1zm25.66663 11c.644 0 1.1667.447 1.1667 1s-.5227 1-1.1667 1h-25.66663c-.644003 0-1.16667-.447-1.16667-1s.522667-1 1.16667-1zm-25.66663 11h25.66663c.644 0 1.1667.447 1.1667 1s-.5227 1-1.1667 1h-25.66663c-.644003 0-1.16667-.447-1.16667-1s.522667-1 1.16667-1z" fill="#32363e" fill-rule="evenodd"/></svg>