<svg width="553" height="1039" viewBox="0 0 553 1039" fill="none" xmlns="http://www.w3.org/2000/svg">
<path opacity="0.3" d="M876.583 332.13C880.32 354.043 873.234 378.064 864.674 400.31L863.216 404.044C854.096 427.175 843.355 449.687 831.908 471.888C825.793 483.773 819.513 495.563 813.191 507.328L808.228 516.543C801.785 528.509 795.322 540.493 788.841 552.496C782.495 564.248 776.128 575.987 769.741 587.715C761.554 602.73 753.305 617.71 744.996 632.655C738.503 644.322 731.954 655.956 725.348 667.557C716.882 682.417 708.305 697.207 699.617 711.928C692.819 723.43 685.942 734.874 678.983 746.261C670.049 760.856 660.942 775.341 651.664 789.715C645.374 799.476 638.988 809.174 632.507 818.807L629.546 823.191C601.58 864.463 570.703 905.084 531.348 932.608L530.281 933.347C529.752 933.715 529.223 934.083 528.682 934.444C521.379 939.453 513.667 943.837 505.627 947.55C491.247 954.103 476.236 957.704 461.922 955.922C439.476 953.121 421.514 937.38 408.891 918.49C396.269 899.6 387.881 877.338 377.787 856.444C374.83 850.323 371.592 844.267 368.1 838.357C346.164 801.352 313.811 770.6 271.467 771.669C266.018 771.892 260.584 772.391 255.187 773.166C246.407 774.32 237.582 775.554 228.994 774.871C209.002 773.3 192.301 761.516 177.129 749.121C156.972 732.616 136.855 712.077 135.023 683.126C133.109 653.08 151.626 622.694 172.376 598.756C204.583 561.507 243.703 532.549 281.384 502.274C319.066 471.999 356.523 439.119 382.785 397.075C388.421 388.04 393.413 378.619 397.723 368.882C403.525 355.932 407.947 342.408 410.917 328.533C415.105 308.437 415.609 288.241 410.557 270.137C399.805 231.354 424.431 184.358 458.555 159.922C491.116 136.605 533.225 133.681 562.632 152.671C595.346 173.847 608.485 215.086 623.554 254.625C625.379 259.419 627.237 264.183 629.161 268.888C630.235 271.515 631.33 274.116 632.445 276.691C634.424 281.217 636.471 285.668 638.641 290.004C649.787 312.195 666.547 333.011 690.643 336.075C704.14 337.783 717.455 333.86 730.75 327.541C760.533 313.378 790.18 287.21 821.296 285.703C848.112 284.407 871.812 304.305 876.583 332.13Z" fill="white" fill-opacity="0.5"/>
<path opacity="0.1" d="M141.012 555.893C135.69 561.896 130.717 568.2 126.119 574.775C104.14 606.725 93.7454 645.229 96.6628 683.891C101.723 748.745 148.732 802.719 194.792 844.828C246.461 892.171 310.838 927.49 381.073 936.177C477.126 948.063 582.701 902.294 624.57 814.955C642.818 776.946 648.429 733.972 665.282 695.306C684.641 650.893 717.805 614.192 744.642 573.856C785.067 513.006 811.201 443.798 821.082 371.422C826.866 328.788 826.466 283.452 806.778 245.215C777.29 188.005 711.221 159.106 647.638 148.916C613.824 143.466 579.455 141.987 545.268 139.744C511.082 137.5 477.573 129.731 443.859 126.54C387.399 121.201 328.486 162.362 307.925 213.626C289.79 258.801 296.319 310.356 282.116 356.914C275.362 379.015 264.097 399.456 252.071 419.198C231.678 452.695 208.8 484.831 181.914 513.377C168.478 527.719 153.942 541.148 141.012 555.893Z" fill="white" fill-opacity="0.5"/>
</svg>
