<svg width="287" height="846" viewBox="0 0 287 846" fill="none" xmlns="http://www.w3.org/2000/svg">
<path opacity="0.3" d="M-193.236 783.839C-208.719 772.305 -218.663 752.959 -226.617 733.846L-227.938 730.625C-236.071 710.62 -242.812 690.032 -248.924 669.216C-252.204 658.081 -255.323 646.907 -258.401 635.722L-260.805 626.955C-263.927 615.572 -267.048 604.166 -270.169 592.737C-273.223 581.547 -276.258 570.352 -279.273 559.152C-283.126 544.807 -286.92 530.447 -290.655 516.073C-293.567 504.848 -296.424 493.61 -299.225 482.358C-302.81 467.944 -306.284 453.506 -309.647 439.046C-312.268 427.743 -314.804 416.427 -317.256 405.099C-320.388 390.57 -323.345 376.007 -326.129 361.411C-328.026 351.506 -329.825 341.583 -331.525 331.642L-332.292 327.112C-339.451 284.409 -344.391 240.369 -336.152 199.48L-335.923 198.376C-335.812 197.828 -335.7 197.28 -335.576 196.728C-333.988 189.203 -331.768 181.824 -328.94 174.672C-323.83 161.934 -316.552 150.673 -306.488 143.214C-290.699 131.521 -269.975 130.649 -250.719 134.957C-231.463 139.264 -212.847 148.229 -193.979 155.312C-188.452 157.387 -182.787 159.253 -177.049 160.875C-141.081 170.986 -102.314 170.924 -76.3389 144.872C-73.0476 141.466 -69.9318 137.895 -67.0036 134.173C-62.1769 128.185 -57.3688 122.121 -51.5622 117.402C-38.0538 106.407 -20.4934 103.804 -3.52807 102.501C19.0349 100.794 43.9897 101.646 62.494 118.745C81.7058 136.483 88.2797 166.681 89.5855 194.164C91.6678 236.882 84.4357 278.531 78.8971 320.146C73.3585 361.761 69.522 404.878 78.2153 447.046C80.0875 456.103 82.5966 465.017 85.724 473.721C89.839 485.337 95.1653 496.488 101.615 506.99C111.028 522.132 122.816 535.127 136.843 543.479C166.847 561.412 179.536 605.712 172.734 641.524C166.243 675.696 141.529 702.774 111.662 708.463C78.407 714.761 45.4308 696.715 12.26 680.895C8.24 678.976 4.21677 677.095 0.187081 675.291C-2.06262 674.283 -4.30957 673.305 -6.55376 672.355C-10.5105 670.696 -14.4648 669.125 -18.4276 667.7C-38.7347 660.433 -61.7458 657.394 -78.7282 669.911C-88.2348 676.927 -94.2529 687.374 -98.822 699.315C-109.053 726.068 -112.003 760.285 -130.659 779.883C-146.737 796.771 -173.56 798.469 -193.236 783.839Z" fill="white" fill-opacity="0.5"/>
<path opacity="0.1" d="M134.99 202.307C134.737 195.344 134.084 188.401 133.033 181.513C127.699 148.257 111.154 117.824 86.1471 95.2722C44.094 57.5407 -17.8042 51.7913 -71.9948 52.9315C-132.848 54.1424 -194.481 70.5288 -243.835 107.166C-311.333 157.267 -350.26 249.314 -324.228 329.307C-312.916 364.135 -290.685 394.51 -278.103 428.915C-263.65 468.434 -262.498 511.381 -255.189 552.819C-244.127 615.297 -219.072 674.462 -181.902 725.876C-159.984 756.141 -132.559 784.397 -97.2652 796.63C-44.4402 814.916 14.4089 793.479 60.4822 761.775C85.0023 744.932 107.492 725.262 130.324 706.182C153.157 687.101 178.876 671.9 201.979 653.699C240.668 623.213 253.027 562.03 235.224 517.485C219.546 478.22 184.541 449.728 165.562 411.951C156.561 394.011 151.39 374.411 147.116 354.794C139.857 321.516 134.975 287.604 134.764 253.547C134.613 236.479 135.701 219.325 134.99 202.307Z" fill="white" fill-opacity="0.5"/>
</svg>
