<svg width="425" height="773" viewBox="0 0 425 773" fill="none" xmlns="http://www.w3.org/2000/svg">
<path opacity="0.3" d="M497.869 57.6013C510.649 73.0064 515.938 94.9276 519.278 116.128L519.822 119.696C523.125 141.839 524.883 164.228 525.953 186.693C526.535 198.714 526.946 210.734 527.313 222.754L527.591 232.174C527.954 244.406 528.31 256.66 528.66 268.938C529.002 280.958 529.323 292.978 529.622 304.999C529.997 320.393 530.31 335.788 530.558 351.182C530.748 363.202 530.879 375.223 530.951 387.243C531.039 402.642 531.01 418.036 530.862 433.426C530.74 445.455 530.529 457.475 530.229 469.487C529.833 484.89 529.253 500.285 528.49 515.671C527.979 526.114 527.366 536.55 526.649 546.981L526.313 551.732C523.087 596.504 517.298 642.08 499.002 681.26L498.502 682.317C498.255 682.842 498.008 683.367 497.749 683.892C494.31 691.086 490.27 697.977 485.672 704.491C477.409 716.075 467.325 725.641 455.361 730.695C436.597 738.616 415.504 734.428 397.157 725.381C378.81 716.334 362.248 702.751 344.97 691.003C339.909 687.561 334.658 684.297 329.274 681.26C295.509 662.281 256.437 652.867 223.899 672.764C219.751 675.39 215.739 678.226 211.879 681.26C205.552 686.113 199.226 691.047 192.222 694.381C175.925 702.157 157.597 700.487 140.187 697.652C117.038 693.856 92.1053 686.897 77.6429 665.147C62.6237 642.58 63.3829 610.549 68.7857 582.542C77.1304 538.997 94.5979 498.804 110.351 458.233C126.104 417.661 140.509 375.159 142.059 330.551C142.387 320.969 142.039 311.375 141.016 301.842C139.71 289.133 137.07 276.596 133.139 264.44C127.357 246.884 118.658 230.909 106.568 219.066C80.7239 193.665 78.769 145.932 94.3765 111.516C109.269 78.6748 140.788 57.4368 172.269 59.0058C207.311 60.7899 236.122 87.0322 265.673 111.079C269.254 113.996 272.848 116.874 276.466 119.677C278.487 121.242 280.511 122.777 282.54 124.283C286.121 126.921 289.72 129.47 293.365 131.874C312.047 144.16 334.487 152.847 354.656 144.388C365.949 139.643 374.565 130.59 382.088 119.677C398.935 95.2249 410.272 61.4731 433.858 46.2896C454.185 33.2064 481.623 38.0525 497.869 57.6013Z" fill="#F8CD4A"/>
<path opacity="0.1" d="M25.0332 563.238C23.5852 570.316 22.5459 577.47 21.9206 584.667C19.1656 619.475 28.3949 654.179 48.0751 683.013C81.2185 731.306 142.173 752.23 197.047 764.329C258.651 777.985 324.75 776.543 383.428 751.697C463.679 717.722 525.397 634.503 518.726 547.549C515.844 509.696 500.871 473.66 496.606 435.922C491.706 392.575 501.044 349.026 503.811 305.491C507.939 239.843 497.16 174.111 472.282 113.226C457.598 77.3775 436.876 42.2064 404.309 21.2539C355.559 -10.0814 291.031 -2.87115 236.863 17.8074C208.042 28.7813 180.577 43.1006 152.909 56.7421C125.242 70.3837 95.6143 79.4107 67.8891 92.1005C21.4595 113.356 -5.94861 171.974 1.09796 221.205C7.29433 264.595 35.5959 301.857 45.4813 344.556C50.1646 364.83 50.5825 385.841 50.0925 406.649C49.2711 441.95 45.8992 477.308 37.7862 511.672C33.7658 528.904 28.4773 545.92 25.0332 563.238Z" fill="#F8CD4A"/>
</svg>
