<svg fill="none" height="397" viewBox="0 0 720 397" width="720" xmlns="http://www.w3.org/2000/svg" xmlns:xlink="http://www.w3.org/1999/xlink"><mask id="a" height="397" maskUnits="userSpaceOnUse" width="720" x="0" y="0"><path d="m0 0h720v397h-720z" fill="#c4c4c4"/></mask><g fill="#f8cd4a" mask="url(#a)"><path d="m656.433 549.437c-17.001 14.103-41.193 19.94-64.589 23.627l-3.938.6c-24.436 3.645-49.144 5.585-73.937 6.765-13.265.643-26.53 1.096-39.796 1.501l-10.396.308c-13.498.4-27.021.793-40.571 1.18-13.265.377-26.53.73-39.796 1.061-16.989.414-33.978.758-50.967 1.033-13.265.21-26.531.354-39.796.433-16.994.098-33.983.065-50.967-.098-13.275-.135-26.54-.367-39.796-.698-16.999-.437-33.988-1.077-50.967-1.92-11.525-.563-23.042-1.24-34.553-2.032l-5.243-.37c-49.4105-3.56-99.7072-9.949-142.9454-30.14l-1.166-.552c-.5794-.272-1.1589-.544-1.7384-.831-7.9389-3.795-15.5434-8.254-22.7327-13.328-12.7836-9.118-23.3401-20.247-28.9185-33.45-8.7412-20.708-4.1193-43.985 5.8647-64.232 9.9839-20.248 24.9738-38.526 37.939-57.593 3.798-5.586 7.4006-11.381 10.7519-17.322 20.9453-37.262 31.334234-80.382 9.3765-116.289-2.8983-4.578-6.0278-9.006-9.3765-13.266-5.355-6.982-10.8008-13.963-14.4802-21.692-8.5806-17.985-6.7374-38.212-3.6096-57.426 4.1891-25.546 11.869-53.062 35.8724-69.022 24.904-16.5748 60.2528-15.737 91.1611-9.7745 48.0557 9.209 92.4107 28.4855 137.1847 45.8705 44.775 17.385 91.678 33.282 140.907 34.993 10.575.362 21.162-.023 31.683-1.152 14.026-1.441 27.861-4.355 41.276-8.692 19.375-6.382 37.004-15.982 50.074-29.324 28.031-28.5208 80.709-30.6782 118.69-13.454 36.242 16.435 59.68 51.219 57.949 85.96-1.969 38.672-30.93 70.467-57.467 103.08-3.219 3.951-6.396 7.917-9.489 11.911-1.726 2.229-3.421 4.463-5.082 6.702-2.912 3.952-5.725 7.924-8.378 11.946-13.559 20.617-23.145 45.382-13.81 67.64 5.236 12.462 15.227 21.972 27.27 30.273 26.985 18.592 64.233 31.104 80.989 57.132 14.438 22.433 9.09 52.713-12.483 70.642z" opacity=".3"/><path d="m98.4219 27.6262c-7.8101-1.5981-15.7058-2.745-23.648-3.435-38.4139-3.0404-76.71245 7.1448-108.5326 28.8635-53.2956 36.5763-76.3863 103.8453-89.7383 164.4023-15.07 67.985-13.479 140.931 13.941 205.687 37.4926 88.562 129.3316 156.674 225.292 149.311 41.774-3.181 81.543-19.704 123.19-24.411 47.837-5.407 95.896 4.898 143.94 7.951 72.449 4.556 144.989-7.34 212.18-34.795 39.562-16.205 78.376-39.073 101.499-75.013 34.581-53.799 26.624-125.012 3.803-184.79-12.11-31.806-27.913-62.116-42.967-92.65-15.055-30.533-25.017-63.229-39.021-93.826-23.457-51.2387-88.147-81.48577-142.477-73.70932-47.885 6.83819-89.006 38.07122-136.127 48.98052-22.375 5.1684-45.562 5.6296-68.525 5.0889-38.958-.9065-77.978-4.6277-115.901-13.581-19.017-4.4369-37.796-10.2732-56.9081-14.0739z" opacity=".1"/></g></svg>