<svg fill="none" height="299" viewBox="0 0 853 299" width="853" xmlns="http://www.w3.org/2000/svg" xmlns:xlink="http://www.w3.org/1999/xlink"><mask id="a" height="299" maskUnits="userSpaceOnUse" width="853" x="0" y="0"><path d="m0 0h853v299h-853z" fill="#c4c4c4"/></mask><g fill="#f8cd4a" mask="url(#a)"><path d="m789.433 268.437c-17.001 14.103-41.193 19.94-64.589 23.627l-3.938.6c-24.436 3.645-49.144 5.585-73.937 6.765-13.265.643-26.53 1.096-39.796 1.501l-10.396.308c-13.498.4-27.021.793-40.571 1.18-13.265.377-26.53.73-39.796 1.061-16.989.414-33.978.758-50.967 1.033-13.265.21-26.531.354-39.796.433-16.994.098-33.983.065-50.967-.098-13.275-.135-26.54-.367-39.796-.698-16.999-.437-33.988-1.077-50.967-1.92-11.525-.563-23.042-1.24-34.553-2.032l-5.243-.37c-49.41-3.56-99.707-9.949-142.945-30.14l-1.166-.552c-.5798-.272-1.1593-.544-1.7388-.831-7.9389-3.795-15.5434-8.254-22.7327-13.328-12.7836-9.118-23.3401-20.247-28.9185-33.45-8.7412-20.708-4.1193-43.985 5.8647-64.232 9.9839-20.248 24.9738-38.526 37.939-57.5934 3.798-5.5855 7.4006-11.3803 10.7523-17.3219 20.945-37.2619 31.334-80.3816 9.376-116.2891-2.898-4.5781-6.028-9.0056-9.376-13.2654-5.3554-6.9818-10.8012-13.9637-14.4806-21.6925-8.5806-17.9852-6.7374-38.2117-3.6096-57.4257 4.1891-25.546 11.869-53.062 35.8722-69.022 24.904-16.575 60.253-15.737 91.161-9.775 48.056 9.21 92.411 28.486 137.185 45.871 44.775 17.385 91.678 33.282 140.907 34.993 10.575.362 21.162-.023 31.683-1.152 14.026-1.441 27.861-4.355 41.276-8.692 19.375-6.382 37.004-15.982 50.074-29.324 28.031-28.521 80.709-30.678 118.69-13.454 36.242 16.435 59.68 51.219 57.949 85.96-1.969 38.6723-30.93 70.4675-57.467 103.0795-3.219 3.9518-6.396 7.9174-9.489 11.911-1.726 2.2295-3.421 4.4637-5.082 6.7026-2.912 3.9517-5.725 7.9243-8.378 11.9458-13.559 20.6173-23.145 45.3818-13.81 67.6401 5.236 12.462 15.227 21.972 27.27 30.273 26.985 18.592 64.233 31.104 80.989 57.132 14.438 22.433 9.09 52.713-12.483 70.642z" opacity=".3"/><path d="m231.422-253.374c-7.81-1.598-15.706-2.745-23.648-3.435-38.414-3.04-76.713 7.145-108.5327 28.864-53.2956 36.576-76.3866 103.845-89.73833 164.4024-15.07043 67.98431-13.47904 140.9302 13.94053 205.6866 37.4931 88.562 129.3325 156.674 225.2925 149.311 41.774-3.181 81.543-19.704 123.19-24.411 47.837-5.407 95.896 4.898 143.94 7.951 72.449 4.556 144.989-7.34 212.18-34.795 39.562-16.205 78.376-39.073 101.499-75.013 34.581-53.799 26.624-125.0118 3.803-184.7903-12.11-31.8055-27.913-62.1162-42.967-92.6497-15.055-30.533-25.017-63.229-39.021-93.826-23.457-51.239-88.147-81.486-142.477-73.709-47.885 6.838-89.006 38.071-136.127 48.98-22.375 5.169-45.562 5.63-68.525 5.089-38.958-.906-77.978-4.628-115.901-13.581-19.017-4.437-37.796-10.273-56.908-14.074z" opacity=".1"/></g></svg>