<svg fill="none" height="343" viewBox="0 0 273 343" width="273" xmlns="http://www.w3.org/2000/svg" xmlns:xlink="http://www.w3.org/1999/xlink"><mask id="a" height="343" maskUnits="userSpaceOnUse" width="273" x="0" y="0"><path d="m.998047.001831h272v342h-272z" fill="#c4c4c4"/></mask><g fill="#f8cd4a" mask="url(#a)"><path d="m439.038 439.835c-11.928 5.561-26.705 5.238-40.693 3.793l-2.351-.255c-14.578-1.63-29.049-4.287-43.451-7.397-7.707-1.658-15.386-3.424-23.057-5.22l-6.01-1.412c-7.803-1.834-15.621-3.675-23.452-5.525-7.666-1.811-15.329-3.636-22.989-5.474-9.808-2.36-19.605-4.76-29.391-7.2-7.641-1.908-15.272-3.854-22.892-5.838-9.762-2.544-19.501-5.162-29.217-7.855-7.593-2.109-15.166-4.273-22.718-6.492-9.681-2.854-19.327-5.824-28.935-8.91-6.523-2.089-13.025-4.243-19.504-6.462l-2.951-1.016c-27.7891-9.621-55.6505-21.014-77.3323-39.316l-.5836-.498c-.2903-.246-.5806-.492-.8688-.746-3.9673-3.412-7.6405-7.156-10.9805-11.193-5.9242-7.233-10.2606-15.29-11.4217-23.785-1.8162-13.323 4.4287-26.089 13.2811-36.28 8.8524-10.192 20.272-18.478 30.6522-27.531 3.0407-2.651 6.0017-5.454 8.8412-8.38 17.7664-18.363 30.3824-41.731 23.3326-65.874-.9554-3.093-2.0668-6.134-3.3297-9.112-1.9934-4.861-4.0389-9.735-4.9559-14.771-2.1445-11.723 2.0355-23.148 6.7961-33.79 6.3473-14.1457 15.0003-28.8965 31.2313-34.4619 16.843-5.7832 36.988.11 53.795 8.29 26.14 12.6825 48.604 30.6259 71.6 47.5389 22.996 16.912 47.443 33.29 75.414 41.812 6.01 1.827 12.142 3.224 18.35 4.181 8.267 1.311 16.652 1.742 25.016 1.284 12.098-.73 23.691-3.589 33.247-9.312 20.482-12.219 51.028-5.408 70.153 10.373 18.249 15.057 26.321 38.776 19.964 58.619-7.1 22.082-28.619 36.054-48.875 50.87-2.457 1.795-4.891 3.604-7.281 5.442-1.335 1.027-2.652 2.061-3.95 3.102-2.28 1.842-4.508 3.711-6.65 5.633-10.96 9.858-20.282 22.725-18.364 37.037 1.079 8.014 5.341 15.046 10.967 21.694 12.606 14.89 32.038 27.83 37.63 45.459 4.817 15.193-2.925 31.901-18.067 38.978z" opacity=".3"/><path d="m198.467 56.397c-4.233-2.1199-8.584-3.9918-13.033-5.6063-21.563-7.637-45.102-7.6014-66.706.1009-36.2146 13.0162-59.8446 48.4183-76.8524 81.4264-19.1403 37.043-29.4902 79.508-23.7618 121.184 7.8303 56.996 49.9884 110.47 106.1632 120.89 24.451 4.55 49.811 1.071 74.425 4.718 28.271 4.19 54.245 17.507 81.329 26.625 40.85 13.722 84.292 17.935 127.068 12.324 25.193-3.327 50.986-10.624 69.797-27.889 28.14-25.848 34.572-68.283 30.713-106.374-2.036-20.262-6.419-40.223-10.34-60.199-3.92-19.976-4.585-40.425-7.894-60.277-5.542-33.245-37.975-60.65-70.337-64.461-28.52-3.3683-56.927 8.418-85.638 7.523-13.631-.432-27.001-3.713-40.088-7.5391-22.204-6.485-44.01-14.6089-64.379-25.5931-10.222-5.4777-20.091-11.7288-30.466-16.8528z" opacity=".1"/></g></svg>