<svg fill="none" height="682" viewBox="0 0 373 682" width="373" xmlns="http://www.w3.org/2000/svg" xmlns:xlink="http://www.w3.org/1999/xlink"><mask id="a" height="682" maskUnits="userSpaceOnUse" width="373" x="0" y="0"><path d="m0 0h373v682h-373z" fill="#c4c4c4"/></mask><g fill="#f8cd4a" mask="url(#a)"><path d="m446.255 50.8373c11.455 13.5967 16.196 32.9449 19.19 51.6567l.487 3.149c2.96 19.544 4.537 39.305 5.495 59.133.522 10.61.891 21.219 1.219 31.828l.25 8.315c.325 10.795.645 21.611.958 32.448.307 10.609.594 21.219.862 31.828.337 13.587.616 27.175.839 40.762.171 10.61.288 21.219.352 31.828.079 13.592.053 27.179-.079 40.763-.11 10.617-.299 21.226-.567 31.828-.356 13.595-.876 27.182-1.56 40.762-.457 9.217-1.007 18.429-1.65 27.635l-.3 4.193c-2.893 39.517-8.081 79.744-24.481 114.325l-.448.932c-.221.464-.442.927-.675 1.391-3.082 6.349-6.704 12.431-10.825 18.181-7.406 10.224-16.445 18.667-27.168 23.128-16.819 6.991-35.725 3.295-52.17-4.69s-31.291-19.974-46.777-30.343c-4.537-3.038-9.244-5.919-14.069-8.599-30.265-16.752-65.287-25.061-94.451-7.499-3.718 2.318-7.314 4.821-10.774 7.499-5.671 4.283-11.341 8.638-17.619 11.581-14.607 6.862-31.035 5.388-46.641 2.887-20.749-3.351-43.0971-9.493-56.0602-28.69-13.4622-19.918-12.7817-48.189-7.939-72.909 7.4796-38.434 23.1363-73.908 37.2563-109.718 14.1199-35.809 27.0319-73.322 28.4209-112.694.294-8.457-.018-16.925-.935-25.339-1.171-11.218-3.537-22.283-7.06-33.012-5.183-15.496-12.98-29.595-23.817-40.048-23.1646-22.419-24.9169-64.55-10.9274-94.9259 13.3488-28.9859 41.6004-47.731 69.8174-46.3462 31.41 1.5747 57.234 24.7366 83.722 45.9609 3.209 2.5742 6.43 5.1152 9.674 7.5882 1.81 1.381 3.625 2.736 5.443 4.065 3.21 2.329 6.437 4.579 9.703 6.701 16.745 10.844 36.859 18.511 54.937 11.045 10.123-4.188 17.846-12.178 24.588-21.811 15.101-21.5814 25.263-51.3714 46.403-64.7727 18.22-11.5475 42.814-7.2702 57.376 9.984z" opacity=".3"/><path d="m22.4381 497.122c-1.298 6.247-2.2295 12.562-2.7899 18.914-2.4695 30.722 5.803 61.353 23.4431 86.802 29.7074 42.624 84.3437 61.092 133.5287 71.77 55.217 12.053 114.464 10.781 167.059-11.149 71.931-29.986 127.252-103.437 121.271-180.184-2.583-33.41-16.003-65.216-19.826-98.524-4.392-38.26 3.978-76.697 6.458-115.121 3.7-57.943-5.961-115.959-28.261-169.6972-13.162-31.6407-31.735-62.6834-60.926-81.1765-43.696-27.65706-101.535-21.29321-150.087-3.0419-25.833 9.6857-50.451 22.3242-75.251 34.3645-24.799 12.0403-51.3549 20.0078-76.2058 31.208-41.6164 18.7601-66.18316 70.4981-59.867089 113.9501 5.554009 38.297 30.921589 71.185 39.782189 108.872 4.1978 17.895 4.5724 36.439 4.1332 54.805-.7362 31.157-3.7586 62.365-11.0305 92.695-3.6036 15.209-8.3439 30.228-11.4309 45.513z" opacity=".1"/></g></svg>