<svg fill="none" height="348" viewBox="0 0 278 348" width="278" xmlns="http://www.w3.org/2000/svg" xmlns:xlink="http://www.w3.org/1999/xlink"><mask id="a" height="342" maskUnits="userSpaceOnUse" width="272" x="3" y="3"><path d="m3 3h272v342h-272z" fill="#c4c4c4"/></mask><g fill="#f8cd4a" mask="url(#a)"><path d="m40.2538 28.0088c9.852-8.3067 23.9377-11.8245 37.5691-14.084l2.2944-.3687c14.2385-2.2399 28.6437-3.4874 43.1017-4.29126 7.735-.43654 15.472-.76309 23.209-1.06114l6.063-.22766c7.873-.29643 15.76-.5889 23.663-.87741 7.737-.28176 15.474-.54995 23.211-.80456 9.909-.32084 19.818-.60094 29.728-.84031 7.737-.18401 15.475-.33001 23.214-.43799 9.913-.13621 19.824-.19639 29.733-.18051 7.745.01688 15.485.09083 23.219.22185 9.919.17602 19.833.47021 29.742.88256 6.726.27485 13.448.61627 20.167 1.02424l3.06.19142c28.842 1.84697 58.213 5.33937 83.531 16.91707l.683.3163c.339.1562.679.3123 1.018.4766 4.649 2.1773 9.106 4.7428 13.324 7.6694 7.5 5.2598 13.71 11.703 17.026 19.379 5.196 12.0399 2.608 25.6408-3.122 37.4991-5.73 11.8582-14.39 22.5912-21.864 33.7752-2.19 3.276-4.265 6.673-6.192 10.155-12.045 21.835-17.905 47.039-4.928 67.884 1.712 2.657 3.558 5.225 5.532 7.695 3.156 4.048 6.366 8.095 8.548 12.587 5.09 10.452 4.109 22.26 2.374 33.484-2.325 14.922-6.677 31.01-20.606 40.433-14.451 9.785-35.076 9.461-53.135 6.127-28.077-5.149-54.043-16.187-80.244-26.121-26.201-9.933-53.638-18.988-82.364-19.757-6.171-.162-12.346.112-18.478.82-8.176.906-16.233 2.67-24.039 5.263-11.273 3.813-21.512 9.496-29.075 17.34-16.22 16.769-46.9408 18.273-69.1781 8.402-21.2195-9.419-35.0546-29.602-34.2064-49.877.9684-22.569 17.715-41.253 33.0444-60.402 1.8593-2.32 3.694-4.648 5.4797-6.992.997-1.309 1.975-2.62 2.9339-3.934 1.68-2.319 3.3029-4.65 4.8319-7.008 7.8137-12.091 13.2906-26.583 7.7412-39.524-3.1128-7.246-8.9856-12.747-16.0502-17.533-15.8287-10.7209-37.6164-17.8462-47.5129-32.9523-8.5275-13.0193-5.5487-30.7088 6.9533-41.2689z" opacity=".3"/><path d="m368.214 325.819c4.564.896 9.176 1.528 13.812 1.894 22.424 1.595 44.719-4.526 63.181-17.344 30.92-21.586 44.078-60.936 51.584-96.326 8.475-39.731 7.207-82.278-9.091-119.9275-22.285-51.4903-76.179-90.79688-132.125-86.05431-24.355 2.05011-47.478 11.87451-71.752 14.81471-27.882 3.3772-55.967-2.4105-84.008-3.9678-42.286-2.3202-84.549 4.9575-123.6183 21.2874-23.0039 9.6379-45.5404 23.1594-58.8622 44.2338-19.92285 31.5457-14.94908 73.0527-1.3576 107.8197 7.2131 18.498 16.5731 36.107 25.4978 53.849s14.8887 36.77 23.201 54.554c13.923 29.782 51.8023 47.126 83.4613 42.336 27.902-4.212 51.746-22.625 79.184-29.208 13.029-3.12 26.553-3.497 39.952-3.289 22.731.348 45.512 2.337 67.677 7.383 11.115 2.5 22.097 5.817 33.264 7.945z" opacity=".1"/></g></svg>