<svg fill="none" height="371" viewBox="0 0 272 371" width="272" xmlns="http://www.w3.org/2000/svg" xmlns:xlink="http://www.w3.org/1999/xlink"><mask id="a" height="371" maskUnits="userSpaceOnUse" width="272" x="0" y="0"><path d="m0 0h272v371h-272z" fill="#c4c4c4"/></mask><g fill="#f8cd4a" mask="url(#a)"><path d="m-190.746 25.0087c9.852-8.3067 23.938-11.8245 37.569-14.0841l2.295-.3686c14.238-2.23997 28.643-3.48741 43.101-4.29129 7.736-.43653 15.4722-.76308 23.209-1.06113l6.0633-.22766c7.8725-.29643 15.7601-.5889 23.6626-.87741 7.7369-.28176 15.4739-.54996 23.2111-.80456 9.909-.32084 19.8183-.60094 29.72799-.84032 7.73771-.18401 15.47571-.33 23.21401-.43798 9.9132-.13621 19.8243-.1964 29.7333-.18051 7.7447.01688 15.4845.09083 23.2193.22184 9.9184.17603 19.8323.47022 29.7414.88257 6.726.27485 13.448.61627 20.167 1.02423l3.061.19143c28.841 1.84697 58.212 5.3394 83.53 16.91709l.683.3163c.34.1561.679.3123 1.018.4766 4.649 2.1772 9.106 4.7428 13.324 7.6694 7.5 5.2598 13.71 11.703 17.026 19.379 5.196 12.0398 2.608 25.6408-3.122 37.499-5.73 11.8583-14.389 22.5914-21.864 33.7754-2.19 3.276-4.264 6.673-6.192 10.155-12.045 21.835-17.905 47.038-4.928 67.884 1.712 2.657 3.559 5.225 5.532 7.695 3.157 4.048 6.366 8.095 8.549 12.587 5.089 10.452 4.108 22.26 2.373 33.484-2.325 14.922-6.677 31.01-20.605 40.433-14.452 9.785-35.077 9.461-53.136 6.127-28.077-5.149-54.0428-16.188-80.2439-26.121s-53.6375-18.988-82.3641-19.757c-6.1709-.162-12.3456.112-18.4779.82-8.1754.906-16.2328 2.67-24.039 5.263-11.2728 3.813-21.5123 9.496-29.0748 17.34-16.2203 16.769-46.9413 18.273-69.1783 8.402-21.219-9.419-35.054-29.602-34.206-49.877.968-22.57 17.715-41.253 33.044-60.402 1.859-2.32 3.694-4.648 5.48-6.993.997-1.308 1.975-2.619 2.934-3.933 1.68-2.319 3.303-4.65 4.832-7.008 7.813-12.091 13.29-26.583 7.741-39.524-3.113-7.246-8.986-12.747-16.05-17.5334-15.829-10.7207-37.617-17.8459-47.513-32.952-8.528-13.0193-5.549-30.7089 6.953-41.2689z" opacity=".3"/><path d="m137.215 326.819c4.563.896 9.175 1.528 13.811 1.894 22.424 1.595 44.719-4.526 63.181-17.344 30.921-21.586 44.078-60.937 51.585-96.327 8.475-39.73 7.206-82.277-9.091-119.9266-22.286-51.4904-76.179-90.7969-132.126-86.05434-24.355 2.05014-47.4781 11.87454-71.7518 14.81474-27.8817 3.3772-55.96654-2.4105-84.0084-3.9679-42.2856-2.3201-84.5478 4.9576-123.6178 21.2875-23.004 9.6378-45.54 23.1594-58.862 44.2337-19.923 31.5459-14.949 73.0529-1.358 107.8199 7.213 18.498 16.573 36.106 25.498 53.849 8.925 17.742 14.889 36.769 23.201 54.554 13.923 29.782 51.802 47.126 83.4608 42.336 27.9029-4.213 51.7465-22.625 79.18479-29.209 13.02885-3.119 26.55311-3.496 39.95201-3.288 22.7308.348 45.5119 2.337 67.6764 7.383 11.115 2.5 22.097 5.817 33.265 7.945z" opacity=".1"/></g></svg>