<svg fill="none" height="492" viewBox="0 0 707 492" width="707" xmlns="http://www.w3.org/2000/svg" xmlns:xlink="http://www.w3.org/1999/xlink"><mask id="a" height="480" maskUnits="userSpaceOnUse" width="697" x="5" y="6"><path d="m5 6h697v480h-697z" fill="#c4c4c4"/></mask><g fill="#f8cd4a" mask="url(#a)"><path d="m648.181 453.178c-13.808 11.454-33.457 16.195-52.459 19.189l-3.198.488c-19.847 2.96-39.916 4.536-60.052 5.495-10.774.521-21.549.89-32.323 1.219l-8.443.249c-10.964.325-21.948.645-32.952.959-10.775.306-21.549.593-32.323.862-13.799.336-27.597.616-41.396.839-10.774.17-21.548.287-32.322.351-13.803.08-27.601.053-41.396-.079-10.782-.11-21.556-.299-32.323-.567-13.806-.355-27.604-.875-41.395-1.559-9.361-.458-18.715-1.008-28.064-1.651l-4.259-.3c-40.131-2.892-80.982-8.081-116.1005-24.48l-.947-.448c-.4707-.222-.9413-.443-1.412-.675-6.448-3.083-12.6244-6.704-18.4636-10.825-10.3829-7.406-18.9569-16.445-23.4878-27.169-7.0996-16.819-3.3456-35.725 4.7634-52.17s20.2838-31.29 30.8142-46.777c3.0848-4.537 6.0109-9.243 8.7328-14.069 17.0115-30.264 25.4495-65.286 7.6157-94.45-2.354-3.719-4.8959-7.315-7.6157-10.775-4.3494-5.67-8.7725-11.341-11.7609-17.618-6.9692-14.608-5.4722-31.036-2.9317-46.642 3.4024-20.749 9.6401-43.0967 29.1361-56.0599 20.227-13.4621 48.937-12.7817 74.041-7.9389 39.031 7.4796 75.057 23.1363 111.422 37.2558 36.366 14.12 74.462 27.033 114.445 28.422 8.589.294 17.189-.019 25.734-.936 11.391-1.17 22.628-3.537 33.524-7.06 15.736-5.183 30.055-12.98 40.67-23.817 22.768-23.1643 65.553-24.9165 96.401-10.927 29.436 13.349 48.473 41.6 47.066 69.817-1.599 31.41-25.121 57.234-46.675 83.722-2.614 3.209-5.194 6.43-7.706 9.674-1.403 1.811-2.779 3.625-4.128 5.444-2.365 3.209-4.65 6.436-6.805 9.702-11.012 16.746-18.798 36.86-11.217 54.938 4.253 10.122 12.368 17.845 22.15 24.588 21.917 15.101 52.17 25.263 65.779 46.403 11.727 18.22 7.383 42.813-10.139 57.376z" opacity=".3"/><path d="m194.962 29.3602c-6.343-1.2979-12.756-2.2295-19.207-2.7899-31.2-2.4694-62.306 5.8031-88.1507 23.4431-43.287 29.7075-62.0416 84.3436-72.8859 133.5286-12.24032 55.217-10.94779 114.464 11.3225 167.059 30.4521 71.931 105.0441 127.252 182.9841 121.272 33.929-2.584 66.229-16.004 100.055-19.827 38.853-4.391 77.888 3.978 116.909 6.458 58.843 3.701 117.76-5.961 172.333-28.261 32.133-13.161 63.658-31.735 82.438-60.926 28.087-43.696 21.624-101.535 3.089-150.087-9.836-25.833-22.671-50.451-34.898-75.251-12.227-24.799-20.319-51.3547-31.693-76.2057-19.052-41.6163-71.593-66.18312-115.72-59.86705-38.893 5.55405-72.292 30.92165-110.564 39.78215-18.173 4.1978-37.005 4.5724-55.656 4.1333-31.641-.7363-63.334-3.7587-94.135-11.0306-15.446-3.6036-30.698-8.3439-46.221-11.4309z" opacity=".1"/></g></svg>