<svg fill="none" height="45" viewBox="0 0 45 45" width="45" xmlns="http://www.w3.org/2000/svg"><rect fill="#fff" height="44" rx="4.5" stroke="#333" width="44" x=".5" y=".5"/><path clip-rule="evenodd" d="m26.9873 19.0004c-.1497.0001-.2933.0597-.3991.1657-.1063.0963-.1669.2331-.1669.3765 0 .1435.0606.2802.1669.3766l1.4837 1.4348h-13.6161c-.3119 0-.5648.2529-.5648.5648 0 .312.2529.5649.5648.5649h13.7404l-1.5892 1.5063c-.2276.2217-.2409.5831-.0301.8209.0998.112.24.1797.3898.1882.1497.0085.2967-.043.4085-.143l2.4478-2.2594c.1345-.1263.1967-.3115.1657-.4934.0374-.1828-.0191-.3722-.1507-.5046l-2.4477-2.4477c-.109-.1018-.254-.156-.403-.1506z" fill="#333" fill-rule="evenodd"/></svg>